<mxfile host="65bd71144e">
    <diagram id="908rJTuKcU4f5jKUFxQg" name="diagram">
        <mxGraphModel dx="890" dy="631" grid="0" gridSize="10" guides="1" tooltips="1" connect="1" arrows="1" fold="1" page="1" pageScale="1" pageWidth="850" pageHeight="1100" math="0" shadow="0">
            <root>
                <mxCell id="0"/>
                <mxCell id="1" parent="0"/>
                <mxCell id="8" style="edgeStyle=none;html=1;" edge="1" parent="1" source="3" target="5">
                    <mxGeometry relative="1" as="geometry"/>
                </mxCell>
                <mxCell id="3" value="" style="ellipse;fillColor=#000000;strokeColor=none;" vertex="1" parent="1">
                    <mxGeometry x="328" y="110" width="30" height="30" as="geometry"/>
                </mxCell>
                <mxCell id="11" style="edgeStyle=none;html=1;" edge="1" parent="1" source="5" target="6">
                    <mxGeometry relative="1" as="geometry"/>
                </mxCell>
                <mxCell id="15" style="edgeStyle=none;html=1;entryX=0.5;entryY=0;entryDx=0;entryDy=0;fontSize=12;" edge="1" parent="1" source="5" target="14">
                    <mxGeometry relative="1" as="geometry"/>
                </mxCell>
                <mxCell id="5" value="&lt;div style=&quot;color: rgb(56 , 58 , 66) ; font-family: &amp;#34;jetbrainsmono nerd font mono&amp;#34; , monospace , &amp;#34;consolas&amp;#34; , &amp;#34;courier new&amp;#34; , monospace ; line-height: 18px&quot;&gt;&lt;span style=&quot;color: rgb(166 , 38 , 164)&quot;&gt;if&lt;/span&gt; (atts == &lt;span style=&quot;color: rgb(152 , 104 , 1)&quot;&gt;null&lt;/span&gt;)&lt;/div&gt;" style="rhombus;whiteSpace=wrap;html=1;" vertex="1" parent="1">
                    <mxGeometry x="258" y="210" width="170" height="80" as="geometry"/>
                </mxCell>
                <mxCell id="17" style="edgeStyle=none;html=1;fontSize=12;" edge="1" parent="1" source="6" target="14">
                    <mxGeometry relative="1" as="geometry">
                        <Array as="points">
                            <mxPoint x="581" y="380"/>
                        </Array>
                    </mxGeometry>
                </mxCell>
                <mxCell id="6" value="&lt;div style=&quot;color: rgb(56 , 58 , 66) ; font-family: &amp;#34;jetbrainsmono nerd font mono&amp;#34; , monospace , &amp;#34;consolas&amp;#34; , &amp;#34;courier new&amp;#34; , monospace ; line-height: 18px&quot;&gt;atts = &lt;span style=&quot;color: rgb(166 , 38 , 164)&quot;&gt;new&lt;/span&gt; &lt;span style=&quot;color: rgb(64 , 120 , 242)&quot;&gt;AttributesImpl&lt;/span&gt;();&lt;/div&gt;" style="rounded=1;whiteSpace=wrap;html=1;" vertex="1" parent="1">
                    <mxGeometry x="483" y="220" width="195" height="60" as="geometry"/>
                </mxCell>
                <mxCell id="7" value="" style="ellipse;html=1;shape=endState;fillColor=#000000;strokeColor=#000000;" vertex="1" parent="1">
                    <mxGeometry x="328" y="510" width="30" height="30" as="geometry"/>
                </mxCell>
                <mxCell id="16" style="edgeStyle=none;html=1;fontSize=12;" edge="1" parent="1" source="14" target="7">
                    <mxGeometry relative="1" as="geometry"/>
                </mxCell>
                <mxCell id="14" value="&lt;div style=&quot;color: rgb(56 , 58 , 66) ; font-family: &amp;#34;jetbrainsmono nerd font mono&amp;#34; , monospace , &amp;#34;consolas&amp;#34; , &amp;#34;courier new&amp;#34; , monospace ; line-height: 18px&quot;&gt;&lt;div style=&quot;font-family: &amp;#34;jetbrainsmono nerd font mono&amp;#34; , monospace , &amp;#34;consolas&amp;#34; , &amp;#34;courier new&amp;#34; , monospace ; line-height: 18px&quot;&gt;&lt;span style=&quot;color: rgb(228 , 86 , 73)&quot;&gt;hd&lt;/span&gt;.&lt;span style=&quot;color: rgb(64 , 120 , 242)&quot;&gt;startElement&lt;/span&gt;(&lt;span style=&quot;color: rgb(80 , 161 , 79)&quot;&gt;&quot;&quot;&lt;/span&gt;, &lt;span style=&quot;color: rgb(80 , 161 , 79)&quot;&gt;&quot;&quot;&lt;/span&gt;, element, atts);&lt;/div&gt;&lt;/div&gt;" style="rounded=1;whiteSpace=wrap;html=1;" vertex="1" parent="1">
                    <mxGeometry x="245.5" y="350" width="195" height="60" as="geometry"/>
                </mxCell>
                <mxCell id="18" value="&lt;font style=&quot;font-size: 14px&quot;&gt;0&lt;/font&gt;" style="text;html=1;strokeColor=default;fillColor=none;align=center;verticalAlign=middle;whiteSpace=wrap;rounded=0;" vertex="1" parent="1">
                    <mxGeometry x="100" y="120" width="30" height="30" as="geometry"/>
                </mxCell>
                <mxCell id="19" value="&lt;font style=&quot;font-size: 14px&quot;&gt;1&lt;/font&gt;" style="text;html=1;strokeColor=default;fillColor=none;align=center;verticalAlign=middle;whiteSpace=wrap;rounded=0;" vertex="1" parent="1">
                    <mxGeometry x="100" y="235" width="30" height="30" as="geometry"/>
                </mxCell>
                <mxCell id="20" value="&lt;font style=&quot;font-size: 14px&quot;&gt;2&lt;/font&gt;" style="text;html=1;strokeColor=default;fillColor=none;align=center;verticalAlign=middle;whiteSpace=wrap;rounded=0;" vertex="1" parent="1">
                    <mxGeometry x="790" y="230" width="30" height="30" as="geometry"/>
                </mxCell>
                <mxCell id="21" value="&lt;font style=&quot;font-size: 14px&quot;&gt;3&lt;/font&gt;" style="text;html=1;strokeColor=default;fillColor=none;align=center;verticalAlign=middle;whiteSpace=wrap;rounded=0;" vertex="1" parent="1">
                    <mxGeometry x="30" y="365" width="30" height="30" as="geometry"/>
                </mxCell>
                <mxCell id="22" value="&lt;font style=&quot;font-size: 14px&quot;&gt;4&lt;/font&gt;" style="text;html=1;strokeColor=default;fillColor=none;align=center;verticalAlign=middle;whiteSpace=wrap;rounded=0;" vertex="1" parent="1">
                    <mxGeometry x="278" y="510" width="30" height="30" as="geometry"/>
                </mxCell>
                <mxCell id="23" value="&lt;div style=&quot;text-align: left&quot;&gt;&lt;span style=&quot;font-size: 13px&quot;&gt;def =&amp;nbsp; {hd, element, atts}&lt;/span&gt;&lt;/div&gt;&lt;font style=&quot;font-size: 13px&quot;&gt;&lt;div style=&quot;text-align: left&quot;&gt;&lt;span&gt;c-use = {}&lt;/span&gt;&lt;/div&gt;&lt;div style=&quot;text-align: left&quot;&gt;&lt;span&gt;p-use = {}&lt;/span&gt;&lt;/div&gt;&lt;/font&gt;" style="text;html=1;align=center;verticalAlign=middle;resizable=0;points=[];autosize=1;strokeColor=none;fillColor=none;fontSize=12;" vertex="1" parent="1">
                    <mxGeometry x="150" y="110" width="160" height="50" as="geometry"/>
                </mxCell>
                <mxCell id="24" value="&lt;div style=&quot;text-align: left&quot;&gt;&lt;span style=&quot;font-size: 13px&quot;&gt;def =&amp;nbsp; {atts}&lt;/span&gt;&lt;/div&gt;&lt;font style=&quot;font-size: 13px&quot;&gt;&lt;div style=&quot;text-align: left&quot;&gt;&lt;span&gt;c-use = {}&lt;/span&gt;&lt;/div&gt;&lt;div style=&quot;text-align: left&quot;&gt;&lt;span&gt;p-use = {}&lt;/span&gt;&lt;/div&gt;&lt;/font&gt;" style="text;html=1;align=center;verticalAlign=middle;resizable=0;points=[];autosize=1;strokeColor=none;fillColor=none;fontSize=12;" vertex="1" parent="1">
                    <mxGeometry x="693" y="220" width="80" height="50" as="geometry"/>
                </mxCell>
                <mxCell id="26" value="&lt;div style=&quot;text-align: left&quot;&gt;&lt;span style=&quot;font-size: 13px&quot;&gt;def =&amp;nbsp; {}&lt;/span&gt;&lt;/div&gt;&lt;font style=&quot;font-size: 13px&quot;&gt;&lt;div style=&quot;text-align: left&quot;&gt;&lt;span&gt;c-use = {}&lt;/span&gt;&lt;/div&gt;&lt;div style=&quot;text-align: left&quot;&gt;&lt;span&gt;p-use = {atts}&lt;/span&gt;&lt;/div&gt;&lt;/font&gt;" style="text;html=1;align=center;verticalAlign=middle;resizable=0;points=[];autosize=1;strokeColor=none;fillColor=none;fontSize=12;" vertex="1" parent="1">
                    <mxGeometry x="155.5" y="225" width="90" height="50" as="geometry"/>
                </mxCell>
                <mxCell id="27" value="&lt;div style=&quot;text-align: left&quot;&gt;&lt;span style=&quot;font-size: 13px&quot;&gt;def =&amp;nbsp; {}&lt;/span&gt;&lt;/div&gt;&lt;font style=&quot;font-size: 13px&quot;&gt;&lt;div style=&quot;text-align: left&quot;&gt;&lt;span&gt;c-use = {hd, element, atts}&lt;/span&gt;&lt;/div&gt;&lt;div style=&quot;text-align: left&quot;&gt;&lt;span&gt;p-use = {}&lt;/span&gt;&lt;/div&gt;&lt;/font&gt;" style="text;html=1;align=center;verticalAlign=middle;resizable=0;points=[];autosize=1;strokeColor=none;fillColor=none;fontSize=12;" vertex="1" parent="1">
                    <mxGeometry x="68" y="355" width="170" height="50" as="geometry"/>
                </mxCell>
            </root>
        </mxGraphModel>
    </diagram>
    <diagram id="VhcyPZRmY_V312yJWik6" name="variables">
        <mxGraphModel dx="972" dy="631" grid="0" gridSize="10" guides="1" tooltips="1" connect="1" arrows="1" fold="1" page="1" pageScale="1" pageWidth="850" pageHeight="1100" math="0" shadow="0">
            <root>
                <mxCell id="uZWHYX7Xwefwb8zwnIJQ-0"/>
                <mxCell id="uZWHYX7Xwefwb8zwnIJQ-1" parent="uZWHYX7Xwefwb8zwnIJQ-0"/>
                <mxCell id="uZWHYX7Xwefwb8zwnIJQ-2" value="hd" style="shape=table;startSize=20;container=1;collapsible=0;childLayout=tableLayout;fontStyle=1;align=center;pointerEvents=1;labelBackgroundColor=none;fontSize=12;fillColor=#647687;fontColor=#ffffff;strokeColor=#314354;" vertex="1" parent="uZWHYX7Xwefwb8zwnIJQ-1">
                    <mxGeometry x="45" y="60" width="240" height="80" as="geometry"/>
                </mxCell>
                <mxCell id="uZWHYX7Xwefwb8zwnIJQ-3" value="" style="shape=partialRectangle;html=1;whiteSpace=wrap;collapsible=0;dropTarget=0;pointerEvents=0;fillColor=none;top=0;left=0;bottom=0;right=0;points=[[0,0.5],[1,0.5]];portConstraint=eastwest;labelBackgroundColor=none;fontSize=12;" vertex="1" parent="uZWHYX7Xwefwb8zwnIJQ-2">
                    <mxGeometry y="20" width="240" height="20" as="geometry"/>
                </mxCell>
                <mxCell id="uZWHYX7Xwefwb8zwnIJQ-4" value="Pair id" style="shape=partialRectangle;html=1;whiteSpace=wrap;connectable=0;fillColor=#ffe6cc;top=0;left=0;bottom=0;right=0;overflow=hidden;pointerEvents=1;labelBackgroundColor=none;fontSize=12;strokeColor=#000000;fontStyle=1;strokeWidth=1;" vertex="1" parent="uZWHYX7Xwefwb8zwnIJQ-3">
                    <mxGeometry width="48" height="20" as="geometry">
                        <mxRectangle width="48" height="20" as="alternateBounds"/>
                    </mxGeometry>
                </mxCell>
                <mxCell id="uZWHYX7Xwefwb8zwnIJQ-5" value="def" style="shape=partialRectangle;html=1;whiteSpace=wrap;connectable=0;fillColor=#ffe6cc;top=0;left=0;bottom=0;right=0;overflow=hidden;pointerEvents=1;labelBackgroundColor=none;fontSize=12;strokeColor=#000000;fontStyle=1;strokeWidth=1;" vertex="1" parent="uZWHYX7Xwefwb8zwnIJQ-3">
                    <mxGeometry x="48" width="33" height="20" as="geometry">
                        <mxRectangle width="33" height="20" as="alternateBounds"/>
                    </mxGeometry>
                </mxCell>
                <mxCell id="uZWHYX7Xwefwb8zwnIJQ-6" value="use" style="shape=partialRectangle;html=1;whiteSpace=wrap;connectable=0;fillColor=#ffe6cc;top=0;left=0;bottom=0;right=0;overflow=hidden;pointerEvents=1;labelBackgroundColor=none;fontSize=12;strokeColor=#000000;fontStyle=1;strokeWidth=1;" vertex="1" parent="uZWHYX7Xwefwb8zwnIJQ-3">
                    <mxGeometry x="81" width="39" height="20" as="geometry">
                        <mxRectangle width="39" height="20" as="alternateBounds"/>
                    </mxGeometry>
                </mxCell>
                <mxCell id="uZWHYX7Xwefwb8zwnIJQ-7" value="path" style="shape=partialRectangle;html=1;whiteSpace=wrap;connectable=0;fillColor=#ffe6cc;top=0;left=0;bottom=0;right=0;overflow=hidden;pointerEvents=1;labelBackgroundColor=none;fontSize=12;strokeColor=#000000;fontStyle=1;strokeWidth=1;" vertex="1" parent="uZWHYX7Xwefwb8zwnIJQ-3">
                    <mxGeometry x="120" width="120" height="20" as="geometry">
                        <mxRectangle width="120" height="20" as="alternateBounds"/>
                    </mxGeometry>
                </mxCell>
                <mxCell id="uZWHYX7Xwefwb8zwnIJQ-8" value="" style="shape=partialRectangle;html=1;whiteSpace=wrap;collapsible=0;dropTarget=0;pointerEvents=0;fillColor=none;top=0;left=0;bottom=0;right=0;points=[[0,0.5],[1,0.5]];portConstraint=eastwest;labelBackgroundColor=none;fontSize=12;" vertex="1" parent="uZWHYX7Xwefwb8zwnIJQ-2">
                    <mxGeometry y="40" width="240" height="20" as="geometry"/>
                </mxCell>
                <mxCell id="uZWHYX7Xwefwb8zwnIJQ-9" value="1" style="shape=partialRectangle;html=1;whiteSpace=wrap;connectable=0;fillColor=none;top=0;left=0;bottom=0;right=0;overflow=hidden;pointerEvents=1;labelBackgroundColor=none;fontSize=12;" vertex="1" parent="uZWHYX7Xwefwb8zwnIJQ-8">
                    <mxGeometry width="48" height="20" as="geometry">
                        <mxRectangle width="48" height="20" as="alternateBounds"/>
                    </mxGeometry>
                </mxCell>
                <mxCell id="uZWHYX7Xwefwb8zwnIJQ-10" value="0" style="shape=partialRectangle;html=1;whiteSpace=wrap;connectable=0;fillColor=none;top=0;left=0;bottom=0;right=0;overflow=hidden;pointerEvents=1;labelBackgroundColor=none;fontSize=12;" vertex="1" parent="uZWHYX7Xwefwb8zwnIJQ-8">
                    <mxGeometry x="48" width="33" height="20" as="geometry">
                        <mxRectangle width="33" height="20" as="alternateBounds"/>
                    </mxGeometry>
                </mxCell>
                <mxCell id="uZWHYX7Xwefwb8zwnIJQ-11" value="3" style="shape=partialRectangle;html=1;whiteSpace=wrap;connectable=0;fillColor=none;top=0;left=0;bottom=0;right=0;overflow=hidden;pointerEvents=1;labelBackgroundColor=none;fontSize=12;" vertex="1" parent="uZWHYX7Xwefwb8zwnIJQ-8">
                    <mxGeometry x="81" width="39" height="20" as="geometry">
                        <mxRectangle width="39" height="20" as="alternateBounds"/>
                    </mxGeometry>
                </mxCell>
                <mxCell id="uZWHYX7Xwefwb8zwnIJQ-12" value="&amp;lt;0,1,3&amp;gt;" style="shape=partialRectangle;html=1;whiteSpace=wrap;connectable=0;fillColor=none;top=0;left=0;bottom=0;right=0;overflow=hidden;pointerEvents=1;labelBackgroundColor=none;fontSize=12;" vertex="1" parent="uZWHYX7Xwefwb8zwnIJQ-8">
                    <mxGeometry x="120" width="120" height="20" as="geometry">
                        <mxRectangle width="120" height="20" as="alternateBounds"/>
                    </mxGeometry>
                </mxCell>
                <mxCell id="o-gBSuBSNPvuxu41T9Ua-0" style="shape=partialRectangle;html=1;whiteSpace=wrap;collapsible=0;dropTarget=0;pointerEvents=0;fillColor=none;top=0;left=0;bottom=0;right=0;points=[[0,0.5],[1,0.5]];portConstraint=eastwest;labelBackgroundColor=none;fontSize=12;" vertex="1" parent="uZWHYX7Xwefwb8zwnIJQ-2">
                    <mxGeometry y="60" width="240" height="20" as="geometry"/>
                </mxCell>
                <mxCell id="o-gBSuBSNPvuxu41T9Ua-1" value="2" style="shape=partialRectangle;html=1;whiteSpace=wrap;connectable=0;fillColor=none;top=0;left=0;bottom=0;right=0;overflow=hidden;pointerEvents=1;labelBackgroundColor=none;fontSize=12;" vertex="1" parent="o-gBSuBSNPvuxu41T9Ua-0">
                    <mxGeometry width="48" height="20" as="geometry">
                        <mxRectangle width="48" height="20" as="alternateBounds"/>
                    </mxGeometry>
                </mxCell>
                <mxCell id="o-gBSuBSNPvuxu41T9Ua-2" value="0" style="shape=partialRectangle;html=1;whiteSpace=wrap;connectable=0;fillColor=none;top=0;left=0;bottom=0;right=0;overflow=hidden;pointerEvents=1;labelBackgroundColor=none;fontSize=12;" vertex="1" parent="o-gBSuBSNPvuxu41T9Ua-0">
                    <mxGeometry x="48" width="33" height="20" as="geometry">
                        <mxRectangle width="33" height="20" as="alternateBounds"/>
                    </mxGeometry>
                </mxCell>
                <mxCell id="o-gBSuBSNPvuxu41T9Ua-3" value="3" style="shape=partialRectangle;html=1;whiteSpace=wrap;connectable=0;fillColor=none;top=0;left=0;bottom=0;right=0;overflow=hidden;pointerEvents=1;labelBackgroundColor=none;fontSize=12;" vertex="1" parent="o-gBSuBSNPvuxu41T9Ua-0">
                    <mxGeometry x="81" width="39" height="20" as="geometry">
                        <mxRectangle width="39" height="20" as="alternateBounds"/>
                    </mxGeometry>
                </mxCell>
                <mxCell id="o-gBSuBSNPvuxu41T9Ua-4" value="&amp;lt;0,1,2,3&amp;gt;" style="shape=partialRectangle;html=1;whiteSpace=wrap;connectable=0;fillColor=none;top=0;left=0;bottom=0;right=0;overflow=hidden;pointerEvents=1;labelBackgroundColor=none;fontSize=12;" vertex="1" parent="o-gBSuBSNPvuxu41T9Ua-0">
                    <mxGeometry x="120" width="120" height="20" as="geometry">
                        <mxRectangle width="120" height="20" as="alternateBounds"/>
                    </mxGeometry>
                </mxCell>
                <mxCell id="gjtqx9_Ay5lrN0pthaV1-0" value="atts" style="shape=table;startSize=20;container=1;collapsible=0;childLayout=tableLayout;fontStyle=1;align=center;pointerEvents=1;labelBackgroundColor=none;fontSize=12;fillColor=#647687;fontColor=#ffffff;strokeColor=#314354;" vertex="1" parent="uZWHYX7Xwefwb8zwnIJQ-1">
                    <mxGeometry x="565" y="60" width="240" height="120" as="geometry"/>
                </mxCell>
                <mxCell id="gjtqx9_Ay5lrN0pthaV1-1" value="" style="shape=partialRectangle;html=1;whiteSpace=wrap;collapsible=0;dropTarget=0;pointerEvents=0;fillColor=none;top=0;left=0;bottom=0;right=0;points=[[0,0.5],[1,0.5]];portConstraint=eastwest;labelBackgroundColor=none;fontSize=12;" vertex="1" parent="gjtqx9_Ay5lrN0pthaV1-0">
                    <mxGeometry y="20" width="240" height="20" as="geometry"/>
                </mxCell>
                <mxCell id="gjtqx9_Ay5lrN0pthaV1-2" value="Pair id" style="shape=partialRectangle;html=1;whiteSpace=wrap;connectable=0;fillColor=#ffe6cc;top=0;left=0;bottom=0;right=0;overflow=hidden;pointerEvents=1;labelBackgroundColor=none;fontSize=12;strokeColor=#000000;fontStyle=1;strokeWidth=1;" vertex="1" parent="gjtqx9_Ay5lrN0pthaV1-1">
                    <mxGeometry width="48" height="20" as="geometry">
                        <mxRectangle width="48" height="20" as="alternateBounds"/>
                    </mxGeometry>
                </mxCell>
                <mxCell id="gjtqx9_Ay5lrN0pthaV1-3" value="def" style="shape=partialRectangle;html=1;whiteSpace=wrap;connectable=0;fillColor=#ffe6cc;top=0;left=0;bottom=0;right=0;overflow=hidden;pointerEvents=1;labelBackgroundColor=none;fontSize=12;strokeColor=#000000;fontStyle=1;strokeWidth=1;" vertex="1" parent="gjtqx9_Ay5lrN0pthaV1-1">
                    <mxGeometry x="48" width="33" height="20" as="geometry">
                        <mxRectangle width="33" height="20" as="alternateBounds"/>
                    </mxGeometry>
                </mxCell>
                <mxCell id="gjtqx9_Ay5lrN0pthaV1-4" value="use" style="shape=partialRectangle;html=1;whiteSpace=wrap;connectable=0;fillColor=#ffe6cc;top=0;left=0;bottom=0;right=0;overflow=hidden;pointerEvents=1;labelBackgroundColor=none;fontSize=12;strokeColor=#000000;fontStyle=1;strokeWidth=1;" vertex="1" parent="gjtqx9_Ay5lrN0pthaV1-1">
                    <mxGeometry x="81" width="39" height="20" as="geometry">
                        <mxRectangle width="39" height="20" as="alternateBounds"/>
                    </mxGeometry>
                </mxCell>
                <mxCell id="gjtqx9_Ay5lrN0pthaV1-5" value="path" style="shape=partialRectangle;html=1;whiteSpace=wrap;connectable=0;fillColor=#ffe6cc;top=0;left=0;bottom=0;right=0;overflow=hidden;pointerEvents=1;labelBackgroundColor=none;fontSize=12;strokeColor=#000000;fontStyle=1;strokeWidth=1;" vertex="1" parent="gjtqx9_Ay5lrN0pthaV1-1">
                    <mxGeometry x="120" width="120" height="20" as="geometry">
                        <mxRectangle width="120" height="20" as="alternateBounds"/>
                    </mxGeometry>
                </mxCell>
                <mxCell id="gjtqx9_Ay5lrN0pthaV1-6" value="" style="shape=partialRectangle;html=1;whiteSpace=wrap;collapsible=0;dropTarget=0;pointerEvents=0;fillColor=none;top=0;left=0;bottom=0;right=0;points=[[0,0.5],[1,0.5]];portConstraint=eastwest;labelBackgroundColor=none;fontSize=12;" vertex="1" parent="gjtqx9_Ay5lrN0pthaV1-0">
                    <mxGeometry y="40" width="240" height="20" as="geometry"/>
                </mxCell>
                <mxCell id="gjtqx9_Ay5lrN0pthaV1-7" value="1" style="shape=partialRectangle;html=1;whiteSpace=wrap;connectable=0;fillColor=none;top=0;left=0;bottom=0;right=0;overflow=hidden;pointerEvents=1;labelBackgroundColor=none;fontSize=12;" vertex="1" parent="gjtqx9_Ay5lrN0pthaV1-6">
                    <mxGeometry width="48" height="20" as="geometry">
                        <mxRectangle width="48" height="20" as="alternateBounds"/>
                    </mxGeometry>
                </mxCell>
                <mxCell id="gjtqx9_Ay5lrN0pthaV1-8" value="0" style="shape=partialRectangle;html=1;whiteSpace=wrap;connectable=0;fillColor=none;top=0;left=0;bottom=0;right=0;overflow=hidden;pointerEvents=1;labelBackgroundColor=none;fontSize=12;" vertex="1" parent="gjtqx9_Ay5lrN0pthaV1-6">
                    <mxGeometry x="48" width="33" height="20" as="geometry">
                        <mxRectangle width="33" height="20" as="alternateBounds"/>
                    </mxGeometry>
                </mxCell>
                <mxCell id="gjtqx9_Ay5lrN0pthaV1-9" value="(1,T)" style="shape=partialRectangle;html=1;whiteSpace=wrap;connectable=0;fillColor=none;top=0;left=0;bottom=0;right=0;overflow=hidden;pointerEvents=1;labelBackgroundColor=none;fontSize=12;" vertex="1" parent="gjtqx9_Ay5lrN0pthaV1-6">
                    <mxGeometry x="81" width="39" height="20" as="geometry">
                        <mxRectangle width="39" height="20" as="alternateBounds"/>
                    </mxGeometry>
                </mxCell>
                <mxCell id="gjtqx9_Ay5lrN0pthaV1-10" value="&amp;lt;0,1,2&amp;gt;" style="shape=partialRectangle;html=1;whiteSpace=wrap;connectable=0;fillColor=none;top=0;left=0;bottom=0;right=0;overflow=hidden;pointerEvents=1;labelBackgroundColor=none;fontSize=12;" vertex="1" parent="gjtqx9_Ay5lrN0pthaV1-6">
                    <mxGeometry x="120" width="120" height="20" as="geometry">
                        <mxRectangle width="120" height="20" as="alternateBounds"/>
                    </mxGeometry>
                </mxCell>
                <mxCell id="x330MdbT8Z0MNr_RU7gT-0" style="shape=partialRectangle;html=1;whiteSpace=wrap;collapsible=0;dropTarget=0;pointerEvents=0;fillColor=none;top=0;left=0;bottom=0;right=0;points=[[0,0.5],[1,0.5]];portConstraint=eastwest;labelBackgroundColor=none;fontSize=12;" vertex="1" parent="gjtqx9_Ay5lrN0pthaV1-0">
                    <mxGeometry y="60" width="240" height="20" as="geometry"/>
                </mxCell>
                <mxCell id="x330MdbT8Z0MNr_RU7gT-1" value="2" style="shape=partialRectangle;html=1;whiteSpace=wrap;connectable=0;fillColor=none;top=0;left=0;bottom=0;right=0;overflow=hidden;pointerEvents=1;labelBackgroundColor=none;fontSize=12;" vertex="1" parent="x330MdbT8Z0MNr_RU7gT-0">
                    <mxGeometry width="48" height="20" as="geometry">
                        <mxRectangle width="48" height="20" as="alternateBounds"/>
                    </mxGeometry>
                </mxCell>
                <mxCell id="x330MdbT8Z0MNr_RU7gT-2" value="0" style="shape=partialRectangle;html=1;whiteSpace=wrap;connectable=0;fillColor=none;top=0;left=0;bottom=0;right=0;overflow=hidden;pointerEvents=1;labelBackgroundColor=none;fontSize=12;" vertex="1" parent="x330MdbT8Z0MNr_RU7gT-0">
                    <mxGeometry x="48" width="33" height="20" as="geometry">
                        <mxRectangle width="33" height="20" as="alternateBounds"/>
                    </mxGeometry>
                </mxCell>
                <mxCell id="x330MdbT8Z0MNr_RU7gT-3" value="(1,F)" style="shape=partialRectangle;html=1;whiteSpace=wrap;connectable=0;fillColor=none;top=0;left=0;bottom=0;right=0;overflow=hidden;pointerEvents=1;labelBackgroundColor=none;fontSize=12;" vertex="1" parent="x330MdbT8Z0MNr_RU7gT-0">
                    <mxGeometry x="81" width="39" height="20" as="geometry">
                        <mxRectangle width="39" height="20" as="alternateBounds"/>
                    </mxGeometry>
                </mxCell>
                <mxCell id="x330MdbT8Z0MNr_RU7gT-4" value="&amp;lt;0,1,3&amp;gt;" style="shape=partialRectangle;html=1;whiteSpace=wrap;connectable=0;fillColor=none;top=0;left=0;bottom=0;right=0;overflow=hidden;pointerEvents=1;labelBackgroundColor=none;fontSize=12;" vertex="1" parent="x330MdbT8Z0MNr_RU7gT-0">
                    <mxGeometry x="120" width="120" height="20" as="geometry">
                        <mxRectangle width="120" height="20" as="alternateBounds"/>
                    </mxGeometry>
                </mxCell>
                <mxCell id="fzpMgXHPod-Nwcpsg7Yy-0" style="shape=partialRectangle;html=1;whiteSpace=wrap;collapsible=0;dropTarget=0;pointerEvents=0;fillColor=none;top=0;left=0;bottom=0;right=0;points=[[0,0.5],[1,0.5]];portConstraint=eastwest;labelBackgroundColor=none;fontSize=12;" vertex="1" parent="gjtqx9_Ay5lrN0pthaV1-0">
                    <mxGeometry y="80" width="240" height="20" as="geometry"/>
                </mxCell>
                <mxCell id="fzpMgXHPod-Nwcpsg7Yy-1" value="3" style="shape=partialRectangle;html=1;whiteSpace=wrap;connectable=0;fillColor=none;top=0;left=0;bottom=0;right=0;overflow=hidden;pointerEvents=1;labelBackgroundColor=none;fontSize=12;" vertex="1" parent="fzpMgXHPod-Nwcpsg7Yy-0">
                    <mxGeometry width="48" height="20" as="geometry">
                        <mxRectangle width="48" height="20" as="alternateBounds"/>
                    </mxGeometry>
                </mxCell>
                <mxCell id="fzpMgXHPod-Nwcpsg7Yy-2" value="0" style="shape=partialRectangle;html=1;whiteSpace=wrap;connectable=0;fillColor=none;top=0;left=0;bottom=0;right=0;overflow=hidden;pointerEvents=1;labelBackgroundColor=none;fontSize=12;" vertex="1" parent="fzpMgXHPod-Nwcpsg7Yy-0">
                    <mxGeometry x="48" width="33" height="20" as="geometry">
                        <mxRectangle width="33" height="20" as="alternateBounds"/>
                    </mxGeometry>
                </mxCell>
                <mxCell id="fzpMgXHPod-Nwcpsg7Yy-3" value="3" style="shape=partialRectangle;html=1;whiteSpace=wrap;connectable=0;fillColor=none;top=0;left=0;bottom=0;right=0;overflow=hidden;pointerEvents=1;labelBackgroundColor=none;fontSize=12;" vertex="1" parent="fzpMgXHPod-Nwcpsg7Yy-0">
                    <mxGeometry x="81" width="39" height="20" as="geometry">
                        <mxRectangle width="39" height="20" as="alternateBounds"/>
                    </mxGeometry>
                </mxCell>
                <mxCell id="fzpMgXHPod-Nwcpsg7Yy-4" value="&amp;lt;0,1,3&amp;gt;" style="shape=partialRectangle;html=1;whiteSpace=wrap;connectable=0;fillColor=none;top=0;left=0;bottom=0;right=0;overflow=hidden;pointerEvents=1;labelBackgroundColor=none;fontSize=12;" vertex="1" parent="fzpMgXHPod-Nwcpsg7Yy-0">
                    <mxGeometry x="120" width="120" height="20" as="geometry">
                        <mxRectangle width="120" height="20" as="alternateBounds"/>
                    </mxGeometry>
                </mxCell>
                <mxCell id="fzpMgXHPod-Nwcpsg7Yy-5" style="shape=partialRectangle;html=1;whiteSpace=wrap;collapsible=0;dropTarget=0;pointerEvents=0;fillColor=none;top=0;left=0;bottom=0;right=0;points=[[0,0.5],[1,0.5]];portConstraint=eastwest;labelBackgroundColor=none;fontSize=12;" vertex="1" parent="gjtqx9_Ay5lrN0pthaV1-0">
                    <mxGeometry y="100" width="240" height="20" as="geometry"/>
                </mxCell>
                <mxCell id="fzpMgXHPod-Nwcpsg7Yy-6" value="4" style="shape=partialRectangle;html=1;whiteSpace=wrap;connectable=0;fillColor=none;top=0;left=0;bottom=0;right=0;overflow=hidden;pointerEvents=1;labelBackgroundColor=none;fontSize=12;" vertex="1" parent="fzpMgXHPod-Nwcpsg7Yy-5">
                    <mxGeometry width="48" height="20" as="geometry">
                        <mxRectangle width="48" height="20" as="alternateBounds"/>
                    </mxGeometry>
                </mxCell>
                <mxCell id="fzpMgXHPod-Nwcpsg7Yy-7" value="2" style="shape=partialRectangle;html=1;whiteSpace=wrap;connectable=0;fillColor=none;top=0;left=0;bottom=0;right=0;overflow=hidden;pointerEvents=1;labelBackgroundColor=none;fontSize=12;" vertex="1" parent="fzpMgXHPod-Nwcpsg7Yy-5">
                    <mxGeometry x="48" width="33" height="20" as="geometry">
                        <mxRectangle width="33" height="20" as="alternateBounds"/>
                    </mxGeometry>
                </mxCell>
                <mxCell id="fzpMgXHPod-Nwcpsg7Yy-8" value="3" style="shape=partialRectangle;html=1;whiteSpace=wrap;connectable=0;fillColor=none;top=0;left=0;bottom=0;right=0;overflow=hidden;pointerEvents=1;labelBackgroundColor=none;fontSize=12;" vertex="1" parent="fzpMgXHPod-Nwcpsg7Yy-5">
                    <mxGeometry x="81" width="39" height="20" as="geometry">
                        <mxRectangle width="39" height="20" as="alternateBounds"/>
                    </mxGeometry>
                </mxCell>
                <mxCell id="fzpMgXHPod-Nwcpsg7Yy-9" value="&amp;lt;2,3&amp;gt;" style="shape=partialRectangle;html=1;whiteSpace=wrap;connectable=0;fillColor=none;top=0;left=0;bottom=0;right=0;overflow=hidden;pointerEvents=1;labelBackgroundColor=none;fontSize=12;" vertex="1" parent="fzpMgXHPod-Nwcpsg7Yy-5">
                    <mxGeometry x="120" width="120" height="20" as="geometry">
                        <mxRectangle width="120" height="20" as="alternateBounds"/>
                    </mxGeometry>
                </mxCell>
                <mxCell id="SywGApTc8qqa1IC0qFmG-0" value="element" style="shape=table;startSize=20;container=1;collapsible=0;childLayout=tableLayout;fontStyle=1;align=center;pointerEvents=1;labelBackgroundColor=none;fontSize=12;fillColor=#647687;fontColor=#ffffff;strokeColor=#314354;" vertex="1" parent="uZWHYX7Xwefwb8zwnIJQ-1">
                    <mxGeometry x="305" y="60" width="240" height="80" as="geometry"/>
                </mxCell>
                <mxCell id="SywGApTc8qqa1IC0qFmG-1" value="" style="shape=partialRectangle;html=1;whiteSpace=wrap;collapsible=0;dropTarget=0;pointerEvents=0;fillColor=none;top=0;left=0;bottom=0;right=0;points=[[0,0.5],[1,0.5]];portConstraint=eastwest;labelBackgroundColor=none;fontSize=12;" vertex="1" parent="SywGApTc8qqa1IC0qFmG-0">
                    <mxGeometry y="20" width="240" height="20" as="geometry"/>
                </mxCell>
                <mxCell id="SywGApTc8qqa1IC0qFmG-2" value="Pair id" style="shape=partialRectangle;html=1;whiteSpace=wrap;connectable=0;fillColor=#ffe6cc;top=0;left=0;bottom=0;right=0;overflow=hidden;pointerEvents=1;labelBackgroundColor=none;fontSize=12;strokeColor=#000000;fontStyle=1;strokeWidth=1;" vertex="1" parent="SywGApTc8qqa1IC0qFmG-1">
                    <mxGeometry width="48" height="20" as="geometry">
                        <mxRectangle width="48" height="20" as="alternateBounds"/>
                    </mxGeometry>
                </mxCell>
                <mxCell id="SywGApTc8qqa1IC0qFmG-3" value="def" style="shape=partialRectangle;html=1;whiteSpace=wrap;connectable=0;fillColor=#ffe6cc;top=0;left=0;bottom=0;right=0;overflow=hidden;pointerEvents=1;labelBackgroundColor=none;fontSize=12;strokeColor=#000000;fontStyle=1;strokeWidth=1;" vertex="1" parent="SywGApTc8qqa1IC0qFmG-1">
                    <mxGeometry x="48" width="33" height="20" as="geometry">
                        <mxRectangle width="33" height="20" as="alternateBounds"/>
                    </mxGeometry>
                </mxCell>
                <mxCell id="SywGApTc8qqa1IC0qFmG-4" value="use" style="shape=partialRectangle;html=1;whiteSpace=wrap;connectable=0;fillColor=#ffe6cc;top=0;left=0;bottom=0;right=0;overflow=hidden;pointerEvents=1;labelBackgroundColor=none;fontSize=12;strokeColor=#000000;fontStyle=1;strokeWidth=1;" vertex="1" parent="SywGApTc8qqa1IC0qFmG-1">
                    <mxGeometry x="81" width="39" height="20" as="geometry">
                        <mxRectangle width="39" height="20" as="alternateBounds"/>
                    </mxGeometry>
                </mxCell>
                <mxCell id="SywGApTc8qqa1IC0qFmG-5" value="path" style="shape=partialRectangle;html=1;whiteSpace=wrap;connectable=0;fillColor=#ffe6cc;top=0;left=0;bottom=0;right=0;overflow=hidden;pointerEvents=1;labelBackgroundColor=none;fontSize=12;strokeColor=#000000;fontStyle=1;strokeWidth=1;" vertex="1" parent="SywGApTc8qqa1IC0qFmG-1">
                    <mxGeometry x="120" width="120" height="20" as="geometry">
                        <mxRectangle width="120" height="20" as="alternateBounds"/>
                    </mxGeometry>
                </mxCell>
                <mxCell id="SywGApTc8qqa1IC0qFmG-6" value="" style="shape=partialRectangle;html=1;whiteSpace=wrap;collapsible=0;dropTarget=0;pointerEvents=0;fillColor=none;top=0;left=0;bottom=0;right=0;points=[[0,0.5],[1,0.5]];portConstraint=eastwest;labelBackgroundColor=none;fontSize=12;" vertex="1" parent="SywGApTc8qqa1IC0qFmG-0">
                    <mxGeometry y="40" width="240" height="20" as="geometry"/>
                </mxCell>
                <mxCell id="SywGApTc8qqa1IC0qFmG-7" value="1" style="shape=partialRectangle;html=1;whiteSpace=wrap;connectable=0;fillColor=none;top=0;left=0;bottom=0;right=0;overflow=hidden;pointerEvents=1;labelBackgroundColor=none;fontSize=12;" vertex="1" parent="SywGApTc8qqa1IC0qFmG-6">
                    <mxGeometry width="48" height="20" as="geometry">
                        <mxRectangle width="48" height="20" as="alternateBounds"/>
                    </mxGeometry>
                </mxCell>
                <mxCell id="SywGApTc8qqa1IC0qFmG-8" value="0" style="shape=partialRectangle;html=1;whiteSpace=wrap;connectable=0;fillColor=none;top=0;left=0;bottom=0;right=0;overflow=hidden;pointerEvents=1;labelBackgroundColor=none;fontSize=12;" vertex="1" parent="SywGApTc8qqa1IC0qFmG-6">
                    <mxGeometry x="48" width="33" height="20" as="geometry">
                        <mxRectangle width="33" height="20" as="alternateBounds"/>
                    </mxGeometry>
                </mxCell>
                <mxCell id="SywGApTc8qqa1IC0qFmG-9" value="3" style="shape=partialRectangle;html=1;whiteSpace=wrap;connectable=0;fillColor=none;top=0;left=0;bottom=0;right=0;overflow=hidden;pointerEvents=1;labelBackgroundColor=none;fontSize=12;" vertex="1" parent="SywGApTc8qqa1IC0qFmG-6">
                    <mxGeometry x="81" width="39" height="20" as="geometry">
                        <mxRectangle width="39" height="20" as="alternateBounds"/>
                    </mxGeometry>
                </mxCell>
                <mxCell id="SywGApTc8qqa1IC0qFmG-10" value="&amp;lt;0,1,3&amp;gt;" style="shape=partialRectangle;html=1;whiteSpace=wrap;connectable=0;fillColor=none;top=0;left=0;bottom=0;right=0;overflow=hidden;pointerEvents=1;labelBackgroundColor=none;fontSize=12;" vertex="1" parent="SywGApTc8qqa1IC0qFmG-6">
                    <mxGeometry x="120" width="120" height="20" as="geometry">
                        <mxRectangle width="120" height="20" as="alternateBounds"/>
                    </mxGeometry>
                </mxCell>
                <mxCell id="SywGApTc8qqa1IC0qFmG-11" style="shape=partialRectangle;html=1;whiteSpace=wrap;collapsible=0;dropTarget=0;pointerEvents=0;fillColor=none;top=0;left=0;bottom=0;right=0;points=[[0,0.5],[1,0.5]];portConstraint=eastwest;labelBackgroundColor=none;fontSize=12;" vertex="1" parent="SywGApTc8qqa1IC0qFmG-0">
                    <mxGeometry y="60" width="240" height="20" as="geometry"/>
                </mxCell>
                <mxCell id="SywGApTc8qqa1IC0qFmG-12" value="2" style="shape=partialRectangle;html=1;whiteSpace=wrap;connectable=0;fillColor=none;top=0;left=0;bottom=0;right=0;overflow=hidden;pointerEvents=1;labelBackgroundColor=none;fontSize=12;" vertex="1" parent="SywGApTc8qqa1IC0qFmG-11">
                    <mxGeometry width="48" height="20" as="geometry">
                        <mxRectangle width="48" height="20" as="alternateBounds"/>
                    </mxGeometry>
                </mxCell>
                <mxCell id="SywGApTc8qqa1IC0qFmG-13" value="0" style="shape=partialRectangle;html=1;whiteSpace=wrap;connectable=0;fillColor=none;top=0;left=0;bottom=0;right=0;overflow=hidden;pointerEvents=1;labelBackgroundColor=none;fontSize=12;" vertex="1" parent="SywGApTc8qqa1IC0qFmG-11">
                    <mxGeometry x="48" width="33" height="20" as="geometry">
                        <mxRectangle width="33" height="20" as="alternateBounds"/>
                    </mxGeometry>
                </mxCell>
                <mxCell id="SywGApTc8qqa1IC0qFmG-14" value="3" style="shape=partialRectangle;html=1;whiteSpace=wrap;connectable=0;fillColor=none;top=0;left=0;bottom=0;right=0;overflow=hidden;pointerEvents=1;labelBackgroundColor=none;fontSize=12;" vertex="1" parent="SywGApTc8qqa1IC0qFmG-11">
                    <mxGeometry x="81" width="39" height="20" as="geometry">
                        <mxRectangle width="39" height="20" as="alternateBounds"/>
                    </mxGeometry>
                </mxCell>
                <mxCell id="SywGApTc8qqa1IC0qFmG-15" value="&amp;lt;01,2,3&amp;gt;" style="shape=partialRectangle;html=1;whiteSpace=wrap;connectable=0;fillColor=none;top=0;left=0;bottom=0;right=0;overflow=hidden;pointerEvents=1;labelBackgroundColor=none;fontSize=12;" vertex="1" parent="SywGApTc8qqa1IC0qFmG-11">
                    <mxGeometry x="120" width="120" height="20" as="geometry">
                        <mxRectangle width="120" height="20" as="alternateBounds"/>
                    </mxGeometry>
                </mxCell>
            </root>
        </mxGraphModel>
    </diagram>
    <diagram id="QDtde4tp5AzvioNP-Ac8" name="All-defs">
        <mxGraphModel dx="972" dy="631" grid="0" gridSize="10" guides="1" tooltips="1" connect="1" arrows="1" fold="1" page="1" pageScale="1" pageWidth="850" pageHeight="1100" math="0" shadow="0">
            <root>
                <mxCell id="9scVprp6ZOIatYPM0PTZ-0"/>
                <mxCell id="9scVprp6ZOIatYPM0PTZ-1" parent="9scVprp6ZOIatYPM0PTZ-0"/>
                <mxCell id="a5E1dwf6bv4AP0N0ufev-0" value="hd" style="shape=table;startSize=20;container=1;collapsible=0;childLayout=tableLayout;fontStyle=1;align=center;pointerEvents=1;labelBackgroundColor=none;fontSize=12;fillColor=#647687;fontColor=#ffffff;strokeColor=#314354;" vertex="1" parent="9scVprp6ZOIatYPM0PTZ-1">
                    <mxGeometry x="45" y="60" width="240" height="80" as="geometry"/>
                </mxCell>
                <mxCell id="a5E1dwf6bv4AP0N0ufev-1" value="" style="shape=partialRectangle;html=1;whiteSpace=wrap;collapsible=0;dropTarget=0;pointerEvents=0;fillColor=none;top=0;left=0;bottom=0;right=0;points=[[0,0.5],[1,0.5]];portConstraint=eastwest;labelBackgroundColor=none;fontSize=12;" vertex="1" parent="a5E1dwf6bv4AP0N0ufev-0">
                    <mxGeometry y="20" width="240" height="20" as="geometry"/>
                </mxCell>
                <mxCell id="a5E1dwf6bv4AP0N0ufev-2" value="Pair id" style="shape=partialRectangle;html=1;whiteSpace=wrap;connectable=0;fillColor=#ffe6cc;top=0;left=0;bottom=0;right=0;overflow=hidden;pointerEvents=1;labelBackgroundColor=none;fontSize=12;strokeColor=#000000;fontStyle=1;strokeWidth=1;" vertex="1" parent="a5E1dwf6bv4AP0N0ufev-1">
                    <mxGeometry width="48" height="20" as="geometry">
                        <mxRectangle width="48" height="20" as="alternateBounds"/>
                    </mxGeometry>
                </mxCell>
                <mxCell id="a5E1dwf6bv4AP0N0ufev-3" value="def" style="shape=partialRectangle;html=1;whiteSpace=wrap;connectable=0;fillColor=#ffe6cc;top=0;left=0;bottom=0;right=0;overflow=hidden;pointerEvents=1;labelBackgroundColor=none;fontSize=12;strokeColor=#000000;fontStyle=1;strokeWidth=1;" vertex="1" parent="a5E1dwf6bv4AP0N0ufev-1">
                    <mxGeometry x="48" width="33" height="20" as="geometry">
                        <mxRectangle width="33" height="20" as="alternateBounds"/>
                    </mxGeometry>
                </mxCell>
                <mxCell id="a5E1dwf6bv4AP0N0ufev-4" value="use" style="shape=partialRectangle;html=1;whiteSpace=wrap;connectable=0;fillColor=#ffe6cc;top=0;left=0;bottom=0;right=0;overflow=hidden;pointerEvents=1;labelBackgroundColor=none;fontSize=12;strokeColor=#000000;fontStyle=1;strokeWidth=1;" vertex="1" parent="a5E1dwf6bv4AP0N0ufev-1">
                    <mxGeometry x="81" width="39" height="20" as="geometry">
                        <mxRectangle width="39" height="20" as="alternateBounds"/>
                    </mxGeometry>
                </mxCell>
                <mxCell id="a5E1dwf6bv4AP0N0ufev-5" value="path" style="shape=partialRectangle;html=1;whiteSpace=wrap;connectable=0;fillColor=#ffe6cc;top=0;left=0;bottom=0;right=0;overflow=hidden;pointerEvents=1;labelBackgroundColor=none;fontSize=12;strokeColor=#000000;fontStyle=1;strokeWidth=1;" vertex="1" parent="a5E1dwf6bv4AP0N0ufev-1">
                    <mxGeometry x="120" width="120" height="20" as="geometry">
                        <mxRectangle width="120" height="20" as="alternateBounds"/>
                    </mxGeometry>
                </mxCell>
                <mxCell id="a5E1dwf6bv4AP0N0ufev-6" value="" style="shape=partialRectangle;html=1;whiteSpace=wrap;collapsible=0;dropTarget=0;pointerEvents=0;fillColor=none;top=0;left=0;bottom=0;right=0;points=[[0,0.5],[1,0.5]];portConstraint=eastwest;labelBackgroundColor=none;fontSize=12;" vertex="1" parent="a5E1dwf6bv4AP0N0ufev-0">
                    <mxGeometry y="40" width="240" height="20" as="geometry"/>
                </mxCell>
                <mxCell id="a5E1dwf6bv4AP0N0ufev-7" value="1" style="shape=partialRectangle;html=1;whiteSpace=wrap;connectable=0;fillColor=none;top=0;left=0;bottom=0;right=0;overflow=hidden;pointerEvents=1;labelBackgroundColor=none;fontSize=12;fontColor=#FF6666;fontStyle=1" vertex="1" parent="a5E1dwf6bv4AP0N0ufev-6">
                    <mxGeometry width="48" height="20" as="geometry">
                        <mxRectangle width="48" height="20" as="alternateBounds"/>
                    </mxGeometry>
                </mxCell>
                <mxCell id="a5E1dwf6bv4AP0N0ufev-8" value="0" style="shape=partialRectangle;html=1;whiteSpace=wrap;connectable=0;fillColor=none;top=0;left=0;bottom=0;right=0;overflow=hidden;pointerEvents=1;labelBackgroundColor=none;fontSize=12;fontColor=#FF6666;fontStyle=1" vertex="1" parent="a5E1dwf6bv4AP0N0ufev-6">
                    <mxGeometry x="48" width="33" height="20" as="geometry">
                        <mxRectangle width="33" height="20" as="alternateBounds"/>
                    </mxGeometry>
                </mxCell>
                <mxCell id="a5E1dwf6bv4AP0N0ufev-9" value="3" style="shape=partialRectangle;html=1;whiteSpace=wrap;connectable=0;fillColor=none;top=0;left=0;bottom=0;right=0;overflow=hidden;pointerEvents=1;labelBackgroundColor=none;fontSize=12;fontColor=#FF6666;fontStyle=1" vertex="1" parent="a5E1dwf6bv4AP0N0ufev-6">
                    <mxGeometry x="81" width="39" height="20" as="geometry">
                        <mxRectangle width="39" height="20" as="alternateBounds"/>
                    </mxGeometry>
                </mxCell>
                <mxCell id="a5E1dwf6bv4AP0N0ufev-10" value="&amp;lt;0,1,3&amp;gt;" style="shape=partialRectangle;html=1;whiteSpace=wrap;connectable=0;fillColor=none;top=0;left=0;bottom=0;right=0;overflow=hidden;pointerEvents=1;labelBackgroundColor=none;fontSize=12;fontColor=#FF6666;fontStyle=1" vertex="1" parent="a5E1dwf6bv4AP0N0ufev-6">
                    <mxGeometry x="120" width="120" height="20" as="geometry">
                        <mxRectangle width="120" height="20" as="alternateBounds"/>
                    </mxGeometry>
                </mxCell>
                <mxCell id="a5E1dwf6bv4AP0N0ufev-11" style="shape=partialRectangle;html=1;whiteSpace=wrap;collapsible=0;dropTarget=0;pointerEvents=0;fillColor=none;top=0;left=0;bottom=0;right=0;points=[[0,0.5],[1,0.5]];portConstraint=eastwest;labelBackgroundColor=none;fontSize=12;" vertex="1" parent="a5E1dwf6bv4AP0N0ufev-0">
                    <mxGeometry y="60" width="240" height="20" as="geometry"/>
                </mxCell>
                <mxCell id="a5E1dwf6bv4AP0N0ufev-12" value="2" style="shape=partialRectangle;html=1;whiteSpace=wrap;connectable=0;fillColor=none;top=0;left=0;bottom=0;right=0;overflow=hidden;pointerEvents=1;labelBackgroundColor=none;fontSize=12;fontColor=#000000;fontStyle=0" vertex="1" parent="a5E1dwf6bv4AP0N0ufev-11">
                    <mxGeometry width="48" height="20" as="geometry">
                        <mxRectangle width="48" height="20" as="alternateBounds"/>
                    </mxGeometry>
                </mxCell>
                <mxCell id="a5E1dwf6bv4AP0N0ufev-13" value="0" style="shape=partialRectangle;html=1;whiteSpace=wrap;connectable=0;fillColor=none;top=0;left=0;bottom=0;right=0;overflow=hidden;pointerEvents=1;labelBackgroundColor=none;fontSize=12;fontColor=#000000;fontStyle=0" vertex="1" parent="a5E1dwf6bv4AP0N0ufev-11">
                    <mxGeometry x="48" width="33" height="20" as="geometry">
                        <mxRectangle width="33" height="20" as="alternateBounds"/>
                    </mxGeometry>
                </mxCell>
                <mxCell id="a5E1dwf6bv4AP0N0ufev-14" value="3" style="shape=partialRectangle;html=1;whiteSpace=wrap;connectable=0;fillColor=none;top=0;left=0;bottom=0;right=0;overflow=hidden;pointerEvents=1;labelBackgroundColor=none;fontSize=12;fontColor=#000000;fontStyle=0" vertex="1" parent="a5E1dwf6bv4AP0N0ufev-11">
                    <mxGeometry x="81" width="39" height="20" as="geometry">
                        <mxRectangle width="39" height="20" as="alternateBounds"/>
                    </mxGeometry>
                </mxCell>
                <mxCell id="a5E1dwf6bv4AP0N0ufev-15" value="&amp;lt;0,1,2,3&amp;gt;" style="shape=partialRectangle;html=1;whiteSpace=wrap;connectable=0;fillColor=none;top=0;left=0;bottom=0;right=0;overflow=hidden;pointerEvents=1;labelBackgroundColor=none;fontSize=12;fontColor=#000000;fontStyle=0" vertex="1" parent="a5E1dwf6bv4AP0N0ufev-11">
                    <mxGeometry x="120" width="120" height="20" as="geometry">
                        <mxRectangle width="120" height="20" as="alternateBounds"/>
                    </mxGeometry>
                </mxCell>
                <mxCell id="a5E1dwf6bv4AP0N0ufev-37" value="element" style="shape=table;startSize=20;container=1;collapsible=0;childLayout=tableLayout;fontStyle=1;align=center;pointerEvents=1;labelBackgroundColor=none;fontSize=12;fillColor=#647687;fontColor=#ffffff;strokeColor=#314354;" vertex="1" parent="9scVprp6ZOIatYPM0PTZ-1">
                    <mxGeometry x="305" y="60" width="240" height="80" as="geometry"/>
                </mxCell>
                <mxCell id="a5E1dwf6bv4AP0N0ufev-38" value="" style="shape=partialRectangle;html=1;whiteSpace=wrap;collapsible=0;dropTarget=0;pointerEvents=0;fillColor=none;top=0;left=0;bottom=0;right=0;points=[[0,0.5],[1,0.5]];portConstraint=eastwest;labelBackgroundColor=none;fontSize=12;" vertex="1" parent="a5E1dwf6bv4AP0N0ufev-37">
                    <mxGeometry y="20" width="240" height="20" as="geometry"/>
                </mxCell>
                <mxCell id="a5E1dwf6bv4AP0N0ufev-39" value="Pair id" style="shape=partialRectangle;html=1;whiteSpace=wrap;connectable=0;fillColor=#ffe6cc;top=0;left=0;bottom=0;right=0;overflow=hidden;pointerEvents=1;labelBackgroundColor=none;fontSize=12;strokeColor=#000000;fontStyle=1;strokeWidth=1;" vertex="1" parent="a5E1dwf6bv4AP0N0ufev-38">
                    <mxGeometry width="48" height="20" as="geometry">
                        <mxRectangle width="48" height="20" as="alternateBounds"/>
                    </mxGeometry>
                </mxCell>
                <mxCell id="a5E1dwf6bv4AP0N0ufev-40" value="def" style="shape=partialRectangle;html=1;whiteSpace=wrap;connectable=0;fillColor=#ffe6cc;top=0;left=0;bottom=0;right=0;overflow=hidden;pointerEvents=1;labelBackgroundColor=none;fontSize=12;strokeColor=#000000;fontStyle=1;strokeWidth=1;" vertex="1" parent="a5E1dwf6bv4AP0N0ufev-38">
                    <mxGeometry x="48" width="33" height="20" as="geometry">
                        <mxRectangle width="33" height="20" as="alternateBounds"/>
                    </mxGeometry>
                </mxCell>
                <mxCell id="a5E1dwf6bv4AP0N0ufev-41" value="use" style="shape=partialRectangle;html=1;whiteSpace=wrap;connectable=0;fillColor=#ffe6cc;top=0;left=0;bottom=0;right=0;overflow=hidden;pointerEvents=1;labelBackgroundColor=none;fontSize=12;strokeColor=#000000;fontStyle=1;strokeWidth=1;" vertex="1" parent="a5E1dwf6bv4AP0N0ufev-38">
                    <mxGeometry x="81" width="39" height="20" as="geometry">
                        <mxRectangle width="39" height="20" as="alternateBounds"/>
                    </mxGeometry>
                </mxCell>
                <mxCell id="a5E1dwf6bv4AP0N0ufev-42" value="path" style="shape=partialRectangle;html=1;whiteSpace=wrap;connectable=0;fillColor=#ffe6cc;top=0;left=0;bottom=0;right=0;overflow=hidden;pointerEvents=1;labelBackgroundColor=none;fontSize=12;strokeColor=#000000;fontStyle=1;strokeWidth=1;" vertex="1" parent="a5E1dwf6bv4AP0N0ufev-38">
                    <mxGeometry x="120" width="120" height="20" as="geometry">
                        <mxRectangle width="120" height="20" as="alternateBounds"/>
                    </mxGeometry>
                </mxCell>
                <mxCell id="a5E1dwf6bv4AP0N0ufev-43" value="" style="shape=partialRectangle;html=1;whiteSpace=wrap;collapsible=0;dropTarget=0;pointerEvents=0;fillColor=none;top=0;left=0;bottom=0;right=0;points=[[0,0.5],[1,0.5]];portConstraint=eastwest;labelBackgroundColor=none;fontSize=12;fontStyle=1;fontColor=#FF6666;" vertex="1" parent="a5E1dwf6bv4AP0N0ufev-37">
                    <mxGeometry y="40" width="240" height="20" as="geometry"/>
                </mxCell>
                <mxCell id="a5E1dwf6bv4AP0N0ufev-44" value="1" style="shape=partialRectangle;html=1;whiteSpace=wrap;connectable=0;fillColor=none;top=0;left=0;bottom=0;right=0;overflow=hidden;pointerEvents=1;labelBackgroundColor=none;fontSize=12;fontColor=#FF6666;fontStyle=1" vertex="1" parent="a5E1dwf6bv4AP0N0ufev-43">
                    <mxGeometry width="48" height="20" as="geometry">
                        <mxRectangle width="48" height="20" as="alternateBounds"/>
                    </mxGeometry>
                </mxCell>
                <mxCell id="a5E1dwf6bv4AP0N0ufev-45" value="0" style="shape=partialRectangle;html=1;whiteSpace=wrap;connectable=0;fillColor=none;top=0;left=0;bottom=0;right=0;overflow=hidden;pointerEvents=1;labelBackgroundColor=none;fontSize=12;fontColor=#FF6666;fontStyle=1" vertex="1" parent="a5E1dwf6bv4AP0N0ufev-43">
                    <mxGeometry x="48" width="33" height="20" as="geometry">
                        <mxRectangle width="33" height="20" as="alternateBounds"/>
                    </mxGeometry>
                </mxCell>
                <mxCell id="a5E1dwf6bv4AP0N0ufev-46" value="3" style="shape=partialRectangle;html=1;whiteSpace=wrap;connectable=0;fillColor=none;top=0;left=0;bottom=0;right=0;overflow=hidden;pointerEvents=1;labelBackgroundColor=none;fontSize=12;fontColor=#FF6666;fontStyle=1" vertex="1" parent="a5E1dwf6bv4AP0N0ufev-43">
                    <mxGeometry x="81" width="39" height="20" as="geometry">
                        <mxRectangle width="39" height="20" as="alternateBounds"/>
                    </mxGeometry>
                </mxCell>
                <mxCell id="a5E1dwf6bv4AP0N0ufev-47" value="&amp;lt;0,1,3&amp;gt;" style="shape=partialRectangle;html=1;whiteSpace=wrap;connectable=0;fillColor=none;top=0;left=0;bottom=0;right=0;overflow=hidden;pointerEvents=1;labelBackgroundColor=none;fontSize=12;fontColor=#FF6666;fontStyle=1" vertex="1" parent="a5E1dwf6bv4AP0N0ufev-43">
                    <mxGeometry x="120" width="120" height="20" as="geometry">
                        <mxRectangle width="120" height="20" as="alternateBounds"/>
                    </mxGeometry>
                </mxCell>
                <mxCell id="a5E1dwf6bv4AP0N0ufev-48" style="shape=partialRectangle;html=1;whiteSpace=wrap;collapsible=0;dropTarget=0;pointerEvents=0;fillColor=none;top=0;left=0;bottom=0;right=0;points=[[0,0.5],[1,0.5]];portConstraint=eastwest;labelBackgroundColor=none;fontSize=12;" vertex="1" parent="a5E1dwf6bv4AP0N0ufev-37">
                    <mxGeometry y="60" width="240" height="20" as="geometry"/>
                </mxCell>
                <mxCell id="a5E1dwf6bv4AP0N0ufev-49" value="2" style="shape=partialRectangle;html=1;whiteSpace=wrap;connectable=0;fillColor=none;top=0;left=0;bottom=0;right=0;overflow=hidden;pointerEvents=1;labelBackgroundColor=none;fontSize=12;" vertex="1" parent="a5E1dwf6bv4AP0N0ufev-48">
                    <mxGeometry width="48" height="20" as="geometry">
                        <mxRectangle width="48" height="20" as="alternateBounds"/>
                    </mxGeometry>
                </mxCell>
                <mxCell id="a5E1dwf6bv4AP0N0ufev-50" value="0" style="shape=partialRectangle;html=1;whiteSpace=wrap;connectable=0;fillColor=none;top=0;left=0;bottom=0;right=0;overflow=hidden;pointerEvents=1;labelBackgroundColor=none;fontSize=12;" vertex="1" parent="a5E1dwf6bv4AP0N0ufev-48">
                    <mxGeometry x="48" width="33" height="20" as="geometry">
                        <mxRectangle width="33" height="20" as="alternateBounds"/>
                    </mxGeometry>
                </mxCell>
                <mxCell id="a5E1dwf6bv4AP0N0ufev-51" value="3" style="shape=partialRectangle;html=1;whiteSpace=wrap;connectable=0;fillColor=none;top=0;left=0;bottom=0;right=0;overflow=hidden;pointerEvents=1;labelBackgroundColor=none;fontSize=12;" vertex="1" parent="a5E1dwf6bv4AP0N0ufev-48">
                    <mxGeometry x="81" width="39" height="20" as="geometry">
                        <mxRectangle width="39" height="20" as="alternateBounds"/>
                    </mxGeometry>
                </mxCell>
                <mxCell id="a5E1dwf6bv4AP0N0ufev-52" value="&amp;lt;01,2,3&amp;gt;" style="shape=partialRectangle;html=1;whiteSpace=wrap;connectable=0;fillColor=none;top=0;left=0;bottom=0;right=0;overflow=hidden;pointerEvents=1;labelBackgroundColor=none;fontSize=12;" vertex="1" parent="a5E1dwf6bv4AP0N0ufev-48">
                    <mxGeometry x="120" width="120" height="20" as="geometry">
                        <mxRectangle width="120" height="20" as="alternateBounds"/>
                    </mxGeometry>
                </mxCell>
                <mxCell id="VUyIN7pkT_dmOCTNE8NM-30" value="&lt;font color=&quot;#000000&quot;&gt;Dúvida: para chegar na path &amp;lt;2,3&amp;gt; o programa teria de passar por 0, onde atts é definido. Portanto, devemos considerar que &amp;lt;2,3&amp;gt; é uma clean path?&amp;nbsp;&amp;nbsp;&lt;/font&gt;" style="text;html=1;strokeColor=none;fillColor=none;align=center;verticalAlign=middle;whiteSpace=wrap;rounded=0;labelBackgroundColor=none;fontSize=12;fontColor=#FF6666;" vertex="1" parent="9scVprp6ZOIatYPM0PTZ-1">
                    <mxGeometry x="562.5" y="246" width="245" height="30" as="geometry"/>
                </mxCell>
                <mxCell id="vTerJ6tpxkMEUft-Fb4Q-0" value="atts" style="shape=table;startSize=20;container=1;collapsible=0;childLayout=tableLayout;fontStyle=1;align=center;pointerEvents=1;labelBackgroundColor=none;fontSize=12;fillColor=#647687;fontColor=#ffffff;strokeColor=#314354;" vertex="1" parent="9scVprp6ZOIatYPM0PTZ-1">
                    <mxGeometry x="565" y="60" width="240" height="120" as="geometry"/>
                </mxCell>
                <mxCell id="vTerJ6tpxkMEUft-Fb4Q-1" value="" style="shape=partialRectangle;html=1;whiteSpace=wrap;collapsible=0;dropTarget=0;pointerEvents=0;fillColor=none;top=0;left=0;bottom=0;right=0;points=[[0,0.5],[1,0.5]];portConstraint=eastwest;labelBackgroundColor=none;fontSize=12;" vertex="1" parent="vTerJ6tpxkMEUft-Fb4Q-0">
                    <mxGeometry y="20" width="240" height="20" as="geometry"/>
                </mxCell>
                <mxCell id="vTerJ6tpxkMEUft-Fb4Q-2" value="Pair id" style="shape=partialRectangle;html=1;whiteSpace=wrap;connectable=0;fillColor=#ffe6cc;top=0;left=0;bottom=0;right=0;overflow=hidden;pointerEvents=1;labelBackgroundColor=none;fontSize=12;strokeColor=#000000;fontStyle=1;strokeWidth=1;" vertex="1" parent="vTerJ6tpxkMEUft-Fb4Q-1">
                    <mxGeometry width="48" height="20" as="geometry">
                        <mxRectangle width="48" height="20" as="alternateBounds"/>
                    </mxGeometry>
                </mxCell>
                <mxCell id="vTerJ6tpxkMEUft-Fb4Q-3" value="def" style="shape=partialRectangle;html=1;whiteSpace=wrap;connectable=0;fillColor=#ffe6cc;top=0;left=0;bottom=0;right=0;overflow=hidden;pointerEvents=1;labelBackgroundColor=none;fontSize=12;strokeColor=#000000;fontStyle=1;strokeWidth=1;" vertex="1" parent="vTerJ6tpxkMEUft-Fb4Q-1">
                    <mxGeometry x="48" width="33" height="20" as="geometry">
                        <mxRectangle width="33" height="20" as="alternateBounds"/>
                    </mxGeometry>
                </mxCell>
                <mxCell id="vTerJ6tpxkMEUft-Fb4Q-4" value="use" style="shape=partialRectangle;html=1;whiteSpace=wrap;connectable=0;fillColor=#ffe6cc;top=0;left=0;bottom=0;right=0;overflow=hidden;pointerEvents=1;labelBackgroundColor=none;fontSize=12;strokeColor=#000000;fontStyle=1;strokeWidth=1;" vertex="1" parent="vTerJ6tpxkMEUft-Fb4Q-1">
                    <mxGeometry x="81" width="39" height="20" as="geometry">
                        <mxRectangle width="39" height="20" as="alternateBounds"/>
                    </mxGeometry>
                </mxCell>
                <mxCell id="vTerJ6tpxkMEUft-Fb4Q-5" value="path" style="shape=partialRectangle;html=1;whiteSpace=wrap;connectable=0;fillColor=#ffe6cc;top=0;left=0;bottom=0;right=0;overflow=hidden;pointerEvents=1;labelBackgroundColor=none;fontSize=12;strokeColor=#000000;fontStyle=1;strokeWidth=1;" vertex="1" parent="vTerJ6tpxkMEUft-Fb4Q-1">
                    <mxGeometry x="120" width="120" height="20" as="geometry">
                        <mxRectangle width="120" height="20" as="alternateBounds"/>
                    </mxGeometry>
                </mxCell>
                <mxCell id="vTerJ6tpxkMEUft-Fb4Q-6" value="" style="shape=partialRectangle;html=1;whiteSpace=wrap;collapsible=0;dropTarget=0;pointerEvents=0;fillColor=none;top=0;left=0;bottom=0;right=0;points=[[0,0.5],[1,0.5]];portConstraint=eastwest;labelBackgroundColor=none;fontSize=12;" vertex="1" parent="vTerJ6tpxkMEUft-Fb4Q-0">
                    <mxGeometry y="40" width="240" height="20" as="geometry"/>
                </mxCell>
                <mxCell id="vTerJ6tpxkMEUft-Fb4Q-7" value="1" style="shape=partialRectangle;html=1;whiteSpace=wrap;connectable=0;fillColor=none;top=0;left=0;bottom=0;right=0;overflow=hidden;pointerEvents=1;labelBackgroundColor=none;fontSize=12;fontColor=#FF6666;fontStyle=1" vertex="1" parent="vTerJ6tpxkMEUft-Fb4Q-6">
                    <mxGeometry width="48" height="20" as="geometry">
                        <mxRectangle width="48" height="20" as="alternateBounds"/>
                    </mxGeometry>
                </mxCell>
                <mxCell id="vTerJ6tpxkMEUft-Fb4Q-8" value="0" style="shape=partialRectangle;html=1;whiteSpace=wrap;connectable=0;fillColor=none;top=0;left=0;bottom=0;right=0;overflow=hidden;pointerEvents=1;labelBackgroundColor=none;fontSize=12;fontColor=#FF6666;fontStyle=1" vertex="1" parent="vTerJ6tpxkMEUft-Fb4Q-6">
                    <mxGeometry x="48" width="33" height="20" as="geometry">
                        <mxRectangle width="33" height="20" as="alternateBounds"/>
                    </mxGeometry>
                </mxCell>
                <mxCell id="vTerJ6tpxkMEUft-Fb4Q-9" value="(1,T)" style="shape=partialRectangle;html=1;whiteSpace=wrap;connectable=0;fillColor=none;top=0;left=0;bottom=0;right=0;overflow=hidden;pointerEvents=1;labelBackgroundColor=none;fontSize=12;fontColor=#FF6666;fontStyle=1" vertex="1" parent="vTerJ6tpxkMEUft-Fb4Q-6">
                    <mxGeometry x="81" width="39" height="20" as="geometry">
                        <mxRectangle width="39" height="20" as="alternateBounds"/>
                    </mxGeometry>
                </mxCell>
                <mxCell id="vTerJ6tpxkMEUft-Fb4Q-10" value="&amp;lt;0,1,2&amp;gt;" style="shape=partialRectangle;html=1;whiteSpace=wrap;connectable=0;fillColor=none;top=0;left=0;bottom=0;right=0;overflow=hidden;pointerEvents=1;labelBackgroundColor=none;fontSize=12;fontColor=#FF6666;fontStyle=1" vertex="1" parent="vTerJ6tpxkMEUft-Fb4Q-6">
                    <mxGeometry x="120" width="120" height="20" as="geometry">
                        <mxRectangle width="120" height="20" as="alternateBounds"/>
                    </mxGeometry>
                </mxCell>
                <mxCell id="vTerJ6tpxkMEUft-Fb4Q-11" style="shape=partialRectangle;html=1;whiteSpace=wrap;collapsible=0;dropTarget=0;pointerEvents=0;fillColor=none;top=0;left=0;bottom=0;right=0;points=[[0,0.5],[1,0.5]];portConstraint=eastwest;labelBackgroundColor=none;fontSize=12;" vertex="1" parent="vTerJ6tpxkMEUft-Fb4Q-0">
                    <mxGeometry y="60" width="240" height="20" as="geometry"/>
                </mxCell>
                <mxCell id="vTerJ6tpxkMEUft-Fb4Q-12" value="2" style="shape=partialRectangle;html=1;whiteSpace=wrap;connectable=0;fillColor=none;top=0;left=0;bottom=0;right=0;overflow=hidden;pointerEvents=1;labelBackgroundColor=none;fontSize=12;" vertex="1" parent="vTerJ6tpxkMEUft-Fb4Q-11">
                    <mxGeometry width="48" height="20" as="geometry">
                        <mxRectangle width="48" height="20" as="alternateBounds"/>
                    </mxGeometry>
                </mxCell>
                <mxCell id="vTerJ6tpxkMEUft-Fb4Q-13" value="0" style="shape=partialRectangle;html=1;whiteSpace=wrap;connectable=0;fillColor=none;top=0;left=0;bottom=0;right=0;overflow=hidden;pointerEvents=1;labelBackgroundColor=none;fontSize=12;" vertex="1" parent="vTerJ6tpxkMEUft-Fb4Q-11">
                    <mxGeometry x="48" width="33" height="20" as="geometry">
                        <mxRectangle width="33" height="20" as="alternateBounds"/>
                    </mxGeometry>
                </mxCell>
                <mxCell id="vTerJ6tpxkMEUft-Fb4Q-14" value="(1,F)" style="shape=partialRectangle;html=1;whiteSpace=wrap;connectable=0;fillColor=none;top=0;left=0;bottom=0;right=0;overflow=hidden;pointerEvents=1;labelBackgroundColor=none;fontSize=12;" vertex="1" parent="vTerJ6tpxkMEUft-Fb4Q-11">
                    <mxGeometry x="81" width="39" height="20" as="geometry">
                        <mxRectangle width="39" height="20" as="alternateBounds"/>
                    </mxGeometry>
                </mxCell>
                <mxCell id="vTerJ6tpxkMEUft-Fb4Q-15" value="&amp;lt;0,1,3&amp;gt;" style="shape=partialRectangle;html=1;whiteSpace=wrap;connectable=0;fillColor=none;top=0;left=0;bottom=0;right=0;overflow=hidden;pointerEvents=1;labelBackgroundColor=none;fontSize=12;" vertex="1" parent="vTerJ6tpxkMEUft-Fb4Q-11">
                    <mxGeometry x="120" width="120" height="20" as="geometry">
                        <mxRectangle width="120" height="20" as="alternateBounds"/>
                    </mxGeometry>
                </mxCell>
                <mxCell id="vTerJ6tpxkMEUft-Fb4Q-16" style="shape=partialRectangle;html=1;whiteSpace=wrap;collapsible=0;dropTarget=0;pointerEvents=0;fillColor=none;top=0;left=0;bottom=0;right=0;points=[[0,0.5],[1,0.5]];portConstraint=eastwest;labelBackgroundColor=none;fontSize=12;" vertex="1" parent="vTerJ6tpxkMEUft-Fb4Q-0">
                    <mxGeometry y="80" width="240" height="20" as="geometry"/>
                </mxCell>
                <mxCell id="vTerJ6tpxkMEUft-Fb4Q-17" value="3" style="shape=partialRectangle;html=1;whiteSpace=wrap;connectable=0;fillColor=none;top=0;left=0;bottom=0;right=0;overflow=hidden;pointerEvents=1;labelBackgroundColor=none;fontSize=12;fontColor=#FF6666;fontStyle=1" vertex="1" parent="vTerJ6tpxkMEUft-Fb4Q-16">
                    <mxGeometry width="48" height="20" as="geometry">
                        <mxRectangle width="48" height="20" as="alternateBounds"/>
                    </mxGeometry>
                </mxCell>
                <mxCell id="vTerJ6tpxkMEUft-Fb4Q-18" value="0" style="shape=partialRectangle;html=1;whiteSpace=wrap;connectable=0;fillColor=none;top=0;left=0;bottom=0;right=0;overflow=hidden;pointerEvents=1;labelBackgroundColor=none;fontSize=12;fontColor=#FF6666;fontStyle=1" vertex="1" parent="vTerJ6tpxkMEUft-Fb4Q-16">
                    <mxGeometry x="48" width="33" height="20" as="geometry">
                        <mxRectangle width="33" height="20" as="alternateBounds"/>
                    </mxGeometry>
                </mxCell>
                <mxCell id="vTerJ6tpxkMEUft-Fb4Q-19" value="3" style="shape=partialRectangle;html=1;whiteSpace=wrap;connectable=0;fillColor=none;top=0;left=0;bottom=0;right=0;overflow=hidden;pointerEvents=1;labelBackgroundColor=none;fontSize=12;fontColor=#FF6666;fontStyle=1" vertex="1" parent="vTerJ6tpxkMEUft-Fb4Q-16">
                    <mxGeometry x="81" width="39" height="20" as="geometry">
                        <mxRectangle width="39" height="20" as="alternateBounds"/>
                    </mxGeometry>
                </mxCell>
                <mxCell id="vTerJ6tpxkMEUft-Fb4Q-20" value="&amp;lt;0,1,3&amp;gt;" style="shape=partialRectangle;html=1;whiteSpace=wrap;connectable=0;fillColor=none;top=0;left=0;bottom=0;right=0;overflow=hidden;pointerEvents=1;labelBackgroundColor=none;fontSize=12;fontColor=#FF6666;fontStyle=1" vertex="1" parent="vTerJ6tpxkMEUft-Fb4Q-16">
                    <mxGeometry x="120" width="120" height="20" as="geometry">
                        <mxRectangle width="120" height="20" as="alternateBounds"/>
                    </mxGeometry>
                </mxCell>
                <mxCell id="vTerJ6tpxkMEUft-Fb4Q-21" style="shape=partialRectangle;html=1;whiteSpace=wrap;collapsible=0;dropTarget=0;pointerEvents=0;fillColor=none;top=0;left=0;bottom=0;right=0;points=[[0,0.5],[1,0.5]];portConstraint=eastwest;labelBackgroundColor=none;fontSize=12;" vertex="1" parent="vTerJ6tpxkMEUft-Fb4Q-0">
                    <mxGeometry y="100" width="240" height="20" as="geometry"/>
                </mxCell>
                <mxCell id="vTerJ6tpxkMEUft-Fb4Q-22" value="4" style="shape=partialRectangle;html=1;whiteSpace=wrap;connectable=0;fillColor=none;top=0;left=0;bottom=0;right=0;overflow=hidden;pointerEvents=1;labelBackgroundColor=none;fontSize=12;fontColor=#FF6666;fontStyle=1" vertex="1" parent="vTerJ6tpxkMEUft-Fb4Q-21">
                    <mxGeometry width="48" height="20" as="geometry">
                        <mxRectangle width="48" height="20" as="alternateBounds"/>
                    </mxGeometry>
                </mxCell>
                <mxCell id="vTerJ6tpxkMEUft-Fb4Q-23" value="2" style="shape=partialRectangle;html=1;whiteSpace=wrap;connectable=0;fillColor=none;top=0;left=0;bottom=0;right=0;overflow=hidden;pointerEvents=1;labelBackgroundColor=none;fontSize=12;fontColor=#FF6666;fontStyle=1" vertex="1" parent="vTerJ6tpxkMEUft-Fb4Q-21">
                    <mxGeometry x="48" width="33" height="20" as="geometry">
                        <mxRectangle width="33" height="20" as="alternateBounds"/>
                    </mxGeometry>
                </mxCell>
                <mxCell id="vTerJ6tpxkMEUft-Fb4Q-24" value="3" style="shape=partialRectangle;html=1;whiteSpace=wrap;connectable=0;fillColor=none;top=0;left=0;bottom=0;right=0;overflow=hidden;pointerEvents=1;labelBackgroundColor=none;fontSize=12;fontColor=#FF6666;fontStyle=1" vertex="1" parent="vTerJ6tpxkMEUft-Fb4Q-21">
                    <mxGeometry x="81" width="39" height="20" as="geometry">
                        <mxRectangle width="39" height="20" as="alternateBounds"/>
                    </mxGeometry>
                </mxCell>
                <mxCell id="vTerJ6tpxkMEUft-Fb4Q-25" value="&amp;lt;2,3&amp;gt;" style="shape=partialRectangle;html=1;whiteSpace=wrap;connectable=0;fillColor=none;top=0;left=0;bottom=0;right=0;overflow=hidden;pointerEvents=1;labelBackgroundColor=none;fontSize=12;fontColor=#FF6666;fontStyle=1" vertex="1" parent="vTerJ6tpxkMEUft-Fb4Q-21">
                    <mxGeometry x="120" width="120" height="20" as="geometry">
                        <mxRectangle width="120" height="20" as="alternateBounds"/>
                    </mxGeometry>
                </mxCell>
            </root>
        </mxGraphModel>
    </diagram>
    <diagram id="jvbJXkut9etqXy6PWDLO" name="All-c-uses">
        <mxGraphModel dx="972" dy="631" grid="0" gridSize="10" guides="1" tooltips="1" connect="1" arrows="1" fold="1" page="1" pageScale="1" pageWidth="850" pageHeight="1100" math="0" shadow="0">
            <root>
                <mxCell id="PsenEIpktz1_uzremDxc-0"/>
                <mxCell id="PsenEIpktz1_uzremDxc-1" parent="PsenEIpktz1_uzremDxc-0"/>
                <mxCell id="W1x5H0TamyeQpifjROW4-0" value="hd" style="shape=table;startSize=20;container=1;collapsible=0;childLayout=tableLayout;fontStyle=1;align=center;pointerEvents=1;labelBackgroundColor=none;fontSize=12;fillColor=#647687;fontColor=#ffffff;strokeColor=#314354;" vertex="1" parent="PsenEIpktz1_uzremDxc-1">
                    <mxGeometry x="45" y="60" width="240" height="80" as="geometry"/>
                </mxCell>
                <mxCell id="W1x5H0TamyeQpifjROW4-1" value="" style="shape=partialRectangle;html=1;whiteSpace=wrap;collapsible=0;dropTarget=0;pointerEvents=0;fillColor=none;top=0;left=0;bottom=0;right=0;points=[[0,0.5],[1,0.5]];portConstraint=eastwest;labelBackgroundColor=none;fontSize=12;" vertex="1" parent="W1x5H0TamyeQpifjROW4-0">
                    <mxGeometry y="20" width="240" height="20" as="geometry"/>
                </mxCell>
                <mxCell id="W1x5H0TamyeQpifjROW4-2" value="Pair id" style="shape=partialRectangle;html=1;whiteSpace=wrap;connectable=0;fillColor=#ffe6cc;top=0;left=0;bottom=0;right=0;overflow=hidden;pointerEvents=1;labelBackgroundColor=none;fontSize=12;strokeColor=#000000;fontStyle=1;strokeWidth=1;" vertex="1" parent="W1x5H0TamyeQpifjROW4-1">
                    <mxGeometry width="48" height="20" as="geometry">
                        <mxRectangle width="48" height="20" as="alternateBounds"/>
                    </mxGeometry>
                </mxCell>
                <mxCell id="W1x5H0TamyeQpifjROW4-3" value="def" style="shape=partialRectangle;html=1;whiteSpace=wrap;connectable=0;fillColor=#ffe6cc;top=0;left=0;bottom=0;right=0;overflow=hidden;pointerEvents=1;labelBackgroundColor=none;fontSize=12;strokeColor=#000000;fontStyle=1;strokeWidth=1;" vertex="1" parent="W1x5H0TamyeQpifjROW4-1">
                    <mxGeometry x="48" width="33" height="20" as="geometry">
                        <mxRectangle width="33" height="20" as="alternateBounds"/>
                    </mxGeometry>
                </mxCell>
                <mxCell id="W1x5H0TamyeQpifjROW4-4" value="use" style="shape=partialRectangle;html=1;whiteSpace=wrap;connectable=0;fillColor=#ffe6cc;top=0;left=0;bottom=0;right=0;overflow=hidden;pointerEvents=1;labelBackgroundColor=none;fontSize=12;strokeColor=#000000;fontStyle=1;strokeWidth=1;" vertex="1" parent="W1x5H0TamyeQpifjROW4-1">
                    <mxGeometry x="81" width="39" height="20" as="geometry">
                        <mxRectangle width="39" height="20" as="alternateBounds"/>
                    </mxGeometry>
                </mxCell>
                <mxCell id="W1x5H0TamyeQpifjROW4-5" value="path" style="shape=partialRectangle;html=1;whiteSpace=wrap;connectable=0;fillColor=#ffe6cc;top=0;left=0;bottom=0;right=0;overflow=hidden;pointerEvents=1;labelBackgroundColor=none;fontSize=12;strokeColor=#000000;fontStyle=1;strokeWidth=1;" vertex="1" parent="W1x5H0TamyeQpifjROW4-1">
                    <mxGeometry x="120" width="120" height="20" as="geometry">
                        <mxRectangle width="120" height="20" as="alternateBounds"/>
                    </mxGeometry>
                </mxCell>
                <mxCell id="W1x5H0TamyeQpifjROW4-6" value="" style="shape=partialRectangle;html=1;whiteSpace=wrap;collapsible=0;dropTarget=0;pointerEvents=0;fillColor=none;top=0;left=0;bottom=0;right=0;points=[[0,0.5],[1,0.5]];portConstraint=eastwest;labelBackgroundColor=none;fontSize=12;" vertex="1" parent="W1x5H0TamyeQpifjROW4-0">
                    <mxGeometry y="40" width="240" height="20" as="geometry"/>
                </mxCell>
                <mxCell id="W1x5H0TamyeQpifjROW4-7" value="1" style="shape=partialRectangle;html=1;whiteSpace=wrap;connectable=0;fillColor=none;top=0;left=0;bottom=0;right=0;overflow=hidden;pointerEvents=1;labelBackgroundColor=none;fontSize=12;fontColor=#FF6666;fontStyle=1" vertex="1" parent="W1x5H0TamyeQpifjROW4-6">
                    <mxGeometry width="48" height="20" as="geometry">
                        <mxRectangle width="48" height="20" as="alternateBounds"/>
                    </mxGeometry>
                </mxCell>
                <mxCell id="W1x5H0TamyeQpifjROW4-8" value="0" style="shape=partialRectangle;html=1;whiteSpace=wrap;connectable=0;fillColor=none;top=0;left=0;bottom=0;right=0;overflow=hidden;pointerEvents=1;labelBackgroundColor=none;fontSize=12;fontColor=#FF6666;fontStyle=1" vertex="1" parent="W1x5H0TamyeQpifjROW4-6">
                    <mxGeometry x="48" width="33" height="20" as="geometry">
                        <mxRectangle width="33" height="20" as="alternateBounds"/>
                    </mxGeometry>
                </mxCell>
                <mxCell id="W1x5H0TamyeQpifjROW4-9" value="3" style="shape=partialRectangle;html=1;whiteSpace=wrap;connectable=0;fillColor=none;top=0;left=0;bottom=0;right=0;overflow=hidden;pointerEvents=1;labelBackgroundColor=none;fontSize=12;fontColor=#FF6666;fontStyle=1" vertex="1" parent="W1x5H0TamyeQpifjROW4-6">
                    <mxGeometry x="81" width="39" height="20" as="geometry">
                        <mxRectangle width="39" height="20" as="alternateBounds"/>
                    </mxGeometry>
                </mxCell>
                <mxCell id="W1x5H0TamyeQpifjROW4-10" value="&amp;lt;0,1,3&amp;gt;" style="shape=partialRectangle;html=1;whiteSpace=wrap;connectable=0;fillColor=none;top=0;left=0;bottom=0;right=0;overflow=hidden;pointerEvents=1;labelBackgroundColor=none;fontSize=12;fontColor=#FF6666;fontStyle=1" vertex="1" parent="W1x5H0TamyeQpifjROW4-6">
                    <mxGeometry x="120" width="120" height="20" as="geometry">
                        <mxRectangle width="120" height="20" as="alternateBounds"/>
                    </mxGeometry>
                </mxCell>
                <mxCell id="W1x5H0TamyeQpifjROW4-11" style="shape=partialRectangle;html=1;whiteSpace=wrap;collapsible=0;dropTarget=0;pointerEvents=0;fillColor=none;top=0;left=0;bottom=0;right=0;points=[[0,0.5],[1,0.5]];portConstraint=eastwest;labelBackgroundColor=none;fontSize=12;" vertex="1" parent="W1x5H0TamyeQpifjROW4-0">
                    <mxGeometry y="60" width="240" height="20" as="geometry"/>
                </mxCell>
                <mxCell id="W1x5H0TamyeQpifjROW4-12" value="2" style="shape=partialRectangle;html=1;whiteSpace=wrap;connectable=0;fillColor=none;top=0;left=0;bottom=0;right=0;overflow=hidden;pointerEvents=1;labelBackgroundColor=none;fontSize=12;fontColor=#000000;fontStyle=0" vertex="1" parent="W1x5H0TamyeQpifjROW4-11">
                    <mxGeometry width="48" height="20" as="geometry">
                        <mxRectangle width="48" height="20" as="alternateBounds"/>
                    </mxGeometry>
                </mxCell>
                <mxCell id="W1x5H0TamyeQpifjROW4-13" value="0" style="shape=partialRectangle;html=1;whiteSpace=wrap;connectable=0;fillColor=none;top=0;left=0;bottom=0;right=0;overflow=hidden;pointerEvents=1;labelBackgroundColor=none;fontSize=12;fontColor=#000000;fontStyle=0" vertex="1" parent="W1x5H0TamyeQpifjROW4-11">
                    <mxGeometry x="48" width="33" height="20" as="geometry">
                        <mxRectangle width="33" height="20" as="alternateBounds"/>
                    </mxGeometry>
                </mxCell>
                <mxCell id="W1x5H0TamyeQpifjROW4-14" value="3" style="shape=partialRectangle;html=1;whiteSpace=wrap;connectable=0;fillColor=none;top=0;left=0;bottom=0;right=0;overflow=hidden;pointerEvents=1;labelBackgroundColor=none;fontSize=12;fontColor=#000000;fontStyle=0" vertex="1" parent="W1x5H0TamyeQpifjROW4-11">
                    <mxGeometry x="81" width="39" height="20" as="geometry">
                        <mxRectangle width="39" height="20" as="alternateBounds"/>
                    </mxGeometry>
                </mxCell>
                <mxCell id="W1x5H0TamyeQpifjROW4-15" value="&amp;lt;0,1,2,3&amp;gt;" style="shape=partialRectangle;html=1;whiteSpace=wrap;connectable=0;fillColor=none;top=0;left=0;bottom=0;right=0;overflow=hidden;pointerEvents=1;labelBackgroundColor=none;fontSize=12;fontColor=#000000;fontStyle=0" vertex="1" parent="W1x5H0TamyeQpifjROW4-11">
                    <mxGeometry x="120" width="120" height="20" as="geometry">
                        <mxRectangle width="120" height="20" as="alternateBounds"/>
                    </mxGeometry>
                </mxCell>
                <mxCell id="W1x5H0TamyeQpifjROW4-16" value="element" style="shape=table;startSize=20;container=1;collapsible=0;childLayout=tableLayout;fontStyle=1;align=center;pointerEvents=1;labelBackgroundColor=none;fontSize=12;fillColor=#647687;fontColor=#ffffff;strokeColor=#314354;" vertex="1" parent="PsenEIpktz1_uzremDxc-1">
                    <mxGeometry x="305" y="60" width="240" height="80" as="geometry"/>
                </mxCell>
                <mxCell id="W1x5H0TamyeQpifjROW4-17" value="" style="shape=partialRectangle;html=1;whiteSpace=wrap;collapsible=0;dropTarget=0;pointerEvents=0;fillColor=none;top=0;left=0;bottom=0;right=0;points=[[0,0.5],[1,0.5]];portConstraint=eastwest;labelBackgroundColor=none;fontSize=12;" vertex="1" parent="W1x5H0TamyeQpifjROW4-16">
                    <mxGeometry y="20" width="240" height="20" as="geometry"/>
                </mxCell>
                <mxCell id="W1x5H0TamyeQpifjROW4-18" value="Pair id" style="shape=partialRectangle;html=1;whiteSpace=wrap;connectable=0;fillColor=#ffe6cc;top=0;left=0;bottom=0;right=0;overflow=hidden;pointerEvents=1;labelBackgroundColor=none;fontSize=12;strokeColor=#000000;fontStyle=1;strokeWidth=1;" vertex="1" parent="W1x5H0TamyeQpifjROW4-17">
                    <mxGeometry width="48" height="20" as="geometry">
                        <mxRectangle width="48" height="20" as="alternateBounds"/>
                    </mxGeometry>
                </mxCell>
                <mxCell id="W1x5H0TamyeQpifjROW4-19" value="def" style="shape=partialRectangle;html=1;whiteSpace=wrap;connectable=0;fillColor=#ffe6cc;top=0;left=0;bottom=0;right=0;overflow=hidden;pointerEvents=1;labelBackgroundColor=none;fontSize=12;strokeColor=#000000;fontStyle=1;strokeWidth=1;" vertex="1" parent="W1x5H0TamyeQpifjROW4-17">
                    <mxGeometry x="48" width="33" height="20" as="geometry">
                        <mxRectangle width="33" height="20" as="alternateBounds"/>
                    </mxGeometry>
                </mxCell>
                <mxCell id="W1x5H0TamyeQpifjROW4-20" value="use" style="shape=partialRectangle;html=1;whiteSpace=wrap;connectable=0;fillColor=#ffe6cc;top=0;left=0;bottom=0;right=0;overflow=hidden;pointerEvents=1;labelBackgroundColor=none;fontSize=12;strokeColor=#000000;fontStyle=1;strokeWidth=1;" vertex="1" parent="W1x5H0TamyeQpifjROW4-17">
                    <mxGeometry x="81" width="39" height="20" as="geometry">
                        <mxRectangle width="39" height="20" as="alternateBounds"/>
                    </mxGeometry>
                </mxCell>
                <mxCell id="W1x5H0TamyeQpifjROW4-21" value="path" style="shape=partialRectangle;html=1;whiteSpace=wrap;connectable=0;fillColor=#ffe6cc;top=0;left=0;bottom=0;right=0;overflow=hidden;pointerEvents=1;labelBackgroundColor=none;fontSize=12;strokeColor=#000000;fontStyle=1;strokeWidth=1;" vertex="1" parent="W1x5H0TamyeQpifjROW4-17">
                    <mxGeometry x="120" width="120" height="20" as="geometry">
                        <mxRectangle width="120" height="20" as="alternateBounds"/>
                    </mxGeometry>
                </mxCell>
                <mxCell id="W1x5H0TamyeQpifjROW4-22" value="" style="shape=partialRectangle;html=1;whiteSpace=wrap;collapsible=0;dropTarget=0;pointerEvents=0;fillColor=none;top=0;left=0;bottom=0;right=0;points=[[0,0.5],[1,0.5]];portConstraint=eastwest;labelBackgroundColor=none;fontSize=12;fontStyle=1;fontColor=#FF6666;" vertex="1" parent="W1x5H0TamyeQpifjROW4-16">
                    <mxGeometry y="40" width="240" height="20" as="geometry"/>
                </mxCell>
                <mxCell id="W1x5H0TamyeQpifjROW4-23" value="1" style="shape=partialRectangle;html=1;whiteSpace=wrap;connectable=0;fillColor=none;top=0;left=0;bottom=0;right=0;overflow=hidden;pointerEvents=1;labelBackgroundColor=none;fontSize=12;fontColor=#FF6666;fontStyle=1" vertex="1" parent="W1x5H0TamyeQpifjROW4-22">
                    <mxGeometry width="48" height="20" as="geometry">
                        <mxRectangle width="48" height="20" as="alternateBounds"/>
                    </mxGeometry>
                </mxCell>
                <mxCell id="W1x5H0TamyeQpifjROW4-24" value="0" style="shape=partialRectangle;html=1;whiteSpace=wrap;connectable=0;fillColor=none;top=0;left=0;bottom=0;right=0;overflow=hidden;pointerEvents=1;labelBackgroundColor=none;fontSize=12;fontColor=#FF6666;fontStyle=1" vertex="1" parent="W1x5H0TamyeQpifjROW4-22">
                    <mxGeometry x="48" width="33" height="20" as="geometry">
                        <mxRectangle width="33" height="20" as="alternateBounds"/>
                    </mxGeometry>
                </mxCell>
                <mxCell id="W1x5H0TamyeQpifjROW4-25" value="3" style="shape=partialRectangle;html=1;whiteSpace=wrap;connectable=0;fillColor=none;top=0;left=0;bottom=0;right=0;overflow=hidden;pointerEvents=1;labelBackgroundColor=none;fontSize=12;fontColor=#FF6666;fontStyle=1" vertex="1" parent="W1x5H0TamyeQpifjROW4-22">
                    <mxGeometry x="81" width="39" height="20" as="geometry">
                        <mxRectangle width="39" height="20" as="alternateBounds"/>
                    </mxGeometry>
                </mxCell>
                <mxCell id="W1x5H0TamyeQpifjROW4-26" value="&amp;lt;0,1,3&amp;gt;" style="shape=partialRectangle;html=1;whiteSpace=wrap;connectable=0;fillColor=none;top=0;left=0;bottom=0;right=0;overflow=hidden;pointerEvents=1;labelBackgroundColor=none;fontSize=12;fontColor=#FF6666;fontStyle=1" vertex="1" parent="W1x5H0TamyeQpifjROW4-22">
                    <mxGeometry x="120" width="120" height="20" as="geometry">
                        <mxRectangle width="120" height="20" as="alternateBounds"/>
                    </mxGeometry>
                </mxCell>
                <mxCell id="W1x5H0TamyeQpifjROW4-27" style="shape=partialRectangle;html=1;whiteSpace=wrap;collapsible=0;dropTarget=0;pointerEvents=0;fillColor=none;top=0;left=0;bottom=0;right=0;points=[[0,0.5],[1,0.5]];portConstraint=eastwest;labelBackgroundColor=none;fontSize=12;" vertex="1" parent="W1x5H0TamyeQpifjROW4-16">
                    <mxGeometry y="60" width="240" height="20" as="geometry"/>
                </mxCell>
                <mxCell id="W1x5H0TamyeQpifjROW4-28" value="2" style="shape=partialRectangle;html=1;whiteSpace=wrap;connectable=0;fillColor=none;top=0;left=0;bottom=0;right=0;overflow=hidden;pointerEvents=1;labelBackgroundColor=none;fontSize=12;" vertex="1" parent="W1x5H0TamyeQpifjROW4-27">
                    <mxGeometry width="48" height="20" as="geometry">
                        <mxRectangle width="48" height="20" as="alternateBounds"/>
                    </mxGeometry>
                </mxCell>
                <mxCell id="W1x5H0TamyeQpifjROW4-29" value="0" style="shape=partialRectangle;html=1;whiteSpace=wrap;connectable=0;fillColor=none;top=0;left=0;bottom=0;right=0;overflow=hidden;pointerEvents=1;labelBackgroundColor=none;fontSize=12;" vertex="1" parent="W1x5H0TamyeQpifjROW4-27">
                    <mxGeometry x="48" width="33" height="20" as="geometry">
                        <mxRectangle width="33" height="20" as="alternateBounds"/>
                    </mxGeometry>
                </mxCell>
                <mxCell id="W1x5H0TamyeQpifjROW4-30" value="3" style="shape=partialRectangle;html=1;whiteSpace=wrap;connectable=0;fillColor=none;top=0;left=0;bottom=0;right=0;overflow=hidden;pointerEvents=1;labelBackgroundColor=none;fontSize=12;" vertex="1" parent="W1x5H0TamyeQpifjROW4-27">
                    <mxGeometry x="81" width="39" height="20" as="geometry">
                        <mxRectangle width="39" height="20" as="alternateBounds"/>
                    </mxGeometry>
                </mxCell>
                <mxCell id="W1x5H0TamyeQpifjROW4-31" value="&amp;lt;01,2,3&amp;gt;" style="shape=partialRectangle;html=1;whiteSpace=wrap;connectable=0;fillColor=none;top=0;left=0;bottom=0;right=0;overflow=hidden;pointerEvents=1;labelBackgroundColor=none;fontSize=12;" vertex="1" parent="W1x5H0TamyeQpifjROW4-27">
                    <mxGeometry x="120" width="120" height="20" as="geometry">
                        <mxRectangle width="120" height="20" as="alternateBounds"/>
                    </mxGeometry>
                </mxCell>
                <mxCell id="W1x5H0TamyeQpifjROW4-32" value="atts" style="shape=table;startSize=20;container=1;collapsible=0;childLayout=tableLayout;fontStyle=1;align=center;pointerEvents=1;labelBackgroundColor=none;fontSize=12;fillColor=#647687;fontColor=#ffffff;strokeColor=#314354;" vertex="1" parent="PsenEIpktz1_uzremDxc-1">
                    <mxGeometry x="565" y="60" width="240" height="120" as="geometry"/>
                </mxCell>
                <mxCell id="W1x5H0TamyeQpifjROW4-33" value="" style="shape=partialRectangle;html=1;whiteSpace=wrap;collapsible=0;dropTarget=0;pointerEvents=0;fillColor=none;top=0;left=0;bottom=0;right=0;points=[[0,0.5],[1,0.5]];portConstraint=eastwest;labelBackgroundColor=none;fontSize=12;" vertex="1" parent="W1x5H0TamyeQpifjROW4-32">
                    <mxGeometry y="20" width="240" height="20" as="geometry"/>
                </mxCell>
                <mxCell id="W1x5H0TamyeQpifjROW4-34" value="Pair id" style="shape=partialRectangle;html=1;whiteSpace=wrap;connectable=0;fillColor=#ffe6cc;top=0;left=0;bottom=0;right=0;overflow=hidden;pointerEvents=1;labelBackgroundColor=none;fontSize=12;strokeColor=#000000;fontStyle=1;strokeWidth=1;" vertex="1" parent="W1x5H0TamyeQpifjROW4-33">
                    <mxGeometry width="48" height="20" as="geometry">
                        <mxRectangle width="48" height="20" as="alternateBounds"/>
                    </mxGeometry>
                </mxCell>
                <mxCell id="W1x5H0TamyeQpifjROW4-35" value="def" style="shape=partialRectangle;html=1;whiteSpace=wrap;connectable=0;fillColor=#ffe6cc;top=0;left=0;bottom=0;right=0;overflow=hidden;pointerEvents=1;labelBackgroundColor=none;fontSize=12;strokeColor=#000000;fontStyle=1;strokeWidth=1;" vertex="1" parent="W1x5H0TamyeQpifjROW4-33">
                    <mxGeometry x="48" width="33" height="20" as="geometry">
                        <mxRectangle width="33" height="20" as="alternateBounds"/>
                    </mxGeometry>
                </mxCell>
                <mxCell id="W1x5H0TamyeQpifjROW4-36" value="use" style="shape=partialRectangle;html=1;whiteSpace=wrap;connectable=0;fillColor=#ffe6cc;top=0;left=0;bottom=0;right=0;overflow=hidden;pointerEvents=1;labelBackgroundColor=none;fontSize=12;strokeColor=#000000;fontStyle=1;strokeWidth=1;" vertex="1" parent="W1x5H0TamyeQpifjROW4-33">
                    <mxGeometry x="81" width="39" height="20" as="geometry">
                        <mxRectangle width="39" height="20" as="alternateBounds"/>
                    </mxGeometry>
                </mxCell>
                <mxCell id="W1x5H0TamyeQpifjROW4-37" value="path" style="shape=partialRectangle;html=1;whiteSpace=wrap;connectable=0;fillColor=#ffe6cc;top=0;left=0;bottom=0;right=0;overflow=hidden;pointerEvents=1;labelBackgroundColor=none;fontSize=12;strokeColor=#000000;fontStyle=1;strokeWidth=1;" vertex="1" parent="W1x5H0TamyeQpifjROW4-33">
                    <mxGeometry x="120" width="120" height="20" as="geometry">
                        <mxRectangle width="120" height="20" as="alternateBounds"/>
                    </mxGeometry>
                </mxCell>
                <mxCell id="W1x5H0TamyeQpifjROW4-38" value="" style="shape=partialRectangle;html=1;whiteSpace=wrap;collapsible=0;dropTarget=0;pointerEvents=0;fillColor=none;top=0;left=0;bottom=0;right=0;points=[[0,0.5],[1,0.5]];portConstraint=eastwest;labelBackgroundColor=none;fontSize=12;" vertex="1" parent="W1x5H0TamyeQpifjROW4-32">
                    <mxGeometry y="40" width="240" height="20" as="geometry"/>
                </mxCell>
                <mxCell id="W1x5H0TamyeQpifjROW4-39" value="1" style="shape=partialRectangle;html=1;whiteSpace=wrap;connectable=0;fillColor=none;top=0;left=0;bottom=0;right=0;overflow=hidden;pointerEvents=1;labelBackgroundColor=none;fontSize=12;fontColor=#000000;fontStyle=0" vertex="1" parent="W1x5H0TamyeQpifjROW4-38">
                    <mxGeometry width="48" height="20" as="geometry">
                        <mxRectangle width="48" height="20" as="alternateBounds"/>
                    </mxGeometry>
                </mxCell>
                <mxCell id="W1x5H0TamyeQpifjROW4-40" value="0" style="shape=partialRectangle;html=1;whiteSpace=wrap;connectable=0;fillColor=none;top=0;left=0;bottom=0;right=0;overflow=hidden;pointerEvents=1;labelBackgroundColor=none;fontSize=12;fontColor=#000000;fontStyle=0" vertex="1" parent="W1x5H0TamyeQpifjROW4-38">
                    <mxGeometry x="48" width="33" height="20" as="geometry">
                        <mxRectangle width="33" height="20" as="alternateBounds"/>
                    </mxGeometry>
                </mxCell>
                <mxCell id="W1x5H0TamyeQpifjROW4-41" value="(1,T)" style="shape=partialRectangle;html=1;whiteSpace=wrap;connectable=0;fillColor=none;top=0;left=0;bottom=0;right=0;overflow=hidden;pointerEvents=1;labelBackgroundColor=none;fontSize=12;fontColor=#000000;fontStyle=0" vertex="1" parent="W1x5H0TamyeQpifjROW4-38">
                    <mxGeometry x="81" width="39" height="20" as="geometry">
                        <mxRectangle width="39" height="20" as="alternateBounds"/>
                    </mxGeometry>
                </mxCell>
                <mxCell id="W1x5H0TamyeQpifjROW4-42" value="&amp;lt;0,1,2&amp;gt;" style="shape=partialRectangle;html=1;whiteSpace=wrap;connectable=0;fillColor=none;top=0;left=0;bottom=0;right=0;overflow=hidden;pointerEvents=1;labelBackgroundColor=none;fontSize=12;fontColor=#000000;fontStyle=0" vertex="1" parent="W1x5H0TamyeQpifjROW4-38">
                    <mxGeometry x="120" width="120" height="20" as="geometry">
                        <mxRectangle width="120" height="20" as="alternateBounds"/>
                    </mxGeometry>
                </mxCell>
                <mxCell id="W1x5H0TamyeQpifjROW4-43" style="shape=partialRectangle;html=1;whiteSpace=wrap;collapsible=0;dropTarget=0;pointerEvents=0;fillColor=none;top=0;left=0;bottom=0;right=0;points=[[0,0.5],[1,0.5]];portConstraint=eastwest;labelBackgroundColor=none;fontSize=12;" vertex="1" parent="W1x5H0TamyeQpifjROW4-32">
                    <mxGeometry y="60" width="240" height="20" as="geometry"/>
                </mxCell>
                <mxCell id="W1x5H0TamyeQpifjROW4-44" value="2" style="shape=partialRectangle;html=1;whiteSpace=wrap;connectable=0;fillColor=none;top=0;left=0;bottom=0;right=0;overflow=hidden;pointerEvents=1;labelBackgroundColor=none;fontSize=12;" vertex="1" parent="W1x5H0TamyeQpifjROW4-43">
                    <mxGeometry width="48" height="20" as="geometry">
                        <mxRectangle width="48" height="20" as="alternateBounds"/>
                    </mxGeometry>
                </mxCell>
                <mxCell id="W1x5H0TamyeQpifjROW4-45" value="0" style="shape=partialRectangle;html=1;whiteSpace=wrap;connectable=0;fillColor=none;top=0;left=0;bottom=0;right=0;overflow=hidden;pointerEvents=1;labelBackgroundColor=none;fontSize=12;" vertex="1" parent="W1x5H0TamyeQpifjROW4-43">
                    <mxGeometry x="48" width="33" height="20" as="geometry">
                        <mxRectangle width="33" height="20" as="alternateBounds"/>
                    </mxGeometry>
                </mxCell>
                <mxCell id="W1x5H0TamyeQpifjROW4-46" value="(1,F)" style="shape=partialRectangle;html=1;whiteSpace=wrap;connectable=0;fillColor=none;top=0;left=0;bottom=0;right=0;overflow=hidden;pointerEvents=1;labelBackgroundColor=none;fontSize=12;" vertex="1" parent="W1x5H0TamyeQpifjROW4-43">
                    <mxGeometry x="81" width="39" height="20" as="geometry">
                        <mxRectangle width="39" height="20" as="alternateBounds"/>
                    </mxGeometry>
                </mxCell>
                <mxCell id="W1x5H0TamyeQpifjROW4-47" value="&amp;lt;0,1,3&amp;gt;" style="shape=partialRectangle;html=1;whiteSpace=wrap;connectable=0;fillColor=none;top=0;left=0;bottom=0;right=0;overflow=hidden;pointerEvents=1;labelBackgroundColor=none;fontSize=12;" vertex="1" parent="W1x5H0TamyeQpifjROW4-43">
                    <mxGeometry x="120" width="120" height="20" as="geometry">
                        <mxRectangle width="120" height="20" as="alternateBounds"/>
                    </mxGeometry>
                </mxCell>
                <mxCell id="W1x5H0TamyeQpifjROW4-48" style="shape=partialRectangle;html=1;whiteSpace=wrap;collapsible=0;dropTarget=0;pointerEvents=0;fillColor=none;top=0;left=0;bottom=0;right=0;points=[[0,0.5],[1,0.5]];portConstraint=eastwest;labelBackgroundColor=none;fontSize=12;" vertex="1" parent="W1x5H0TamyeQpifjROW4-32">
                    <mxGeometry y="80" width="240" height="20" as="geometry"/>
                </mxCell>
                <mxCell id="W1x5H0TamyeQpifjROW4-49" value="3" style="shape=partialRectangle;html=1;whiteSpace=wrap;connectable=0;fillColor=none;top=0;left=0;bottom=0;right=0;overflow=hidden;pointerEvents=1;labelBackgroundColor=none;fontSize=12;fontColor=#FF6666;fontStyle=1" vertex="1" parent="W1x5H0TamyeQpifjROW4-48">
                    <mxGeometry width="48" height="20" as="geometry">
                        <mxRectangle width="48" height="20" as="alternateBounds"/>
                    </mxGeometry>
                </mxCell>
                <mxCell id="W1x5H0TamyeQpifjROW4-50" value="0" style="shape=partialRectangle;html=1;whiteSpace=wrap;connectable=0;fillColor=none;top=0;left=0;bottom=0;right=0;overflow=hidden;pointerEvents=1;labelBackgroundColor=none;fontSize=12;fontColor=#FF6666;fontStyle=1" vertex="1" parent="W1x5H0TamyeQpifjROW4-48">
                    <mxGeometry x="48" width="33" height="20" as="geometry">
                        <mxRectangle width="33" height="20" as="alternateBounds"/>
                    </mxGeometry>
                </mxCell>
                <mxCell id="W1x5H0TamyeQpifjROW4-51" value="3" style="shape=partialRectangle;html=1;whiteSpace=wrap;connectable=0;fillColor=none;top=0;left=0;bottom=0;right=0;overflow=hidden;pointerEvents=1;labelBackgroundColor=none;fontSize=12;fontColor=#FF6666;fontStyle=1" vertex="1" parent="W1x5H0TamyeQpifjROW4-48">
                    <mxGeometry x="81" width="39" height="20" as="geometry">
                        <mxRectangle width="39" height="20" as="alternateBounds"/>
                    </mxGeometry>
                </mxCell>
                <mxCell id="W1x5H0TamyeQpifjROW4-52" value="&amp;lt;0,1,3&amp;gt;" style="shape=partialRectangle;html=1;whiteSpace=wrap;connectable=0;fillColor=none;top=0;left=0;bottom=0;right=0;overflow=hidden;pointerEvents=1;labelBackgroundColor=none;fontSize=12;fontColor=#FF6666;fontStyle=1" vertex="1" parent="W1x5H0TamyeQpifjROW4-48">
                    <mxGeometry x="120" width="120" height="20" as="geometry">
                        <mxRectangle width="120" height="20" as="alternateBounds"/>
                    </mxGeometry>
                </mxCell>
                <mxCell id="W1x5H0TamyeQpifjROW4-53" style="shape=partialRectangle;html=1;whiteSpace=wrap;collapsible=0;dropTarget=0;pointerEvents=0;fillColor=none;top=0;left=0;bottom=0;right=0;points=[[0,0.5],[1,0.5]];portConstraint=eastwest;labelBackgroundColor=none;fontSize=12;" vertex="1" parent="W1x5H0TamyeQpifjROW4-32">
                    <mxGeometry y="100" width="240" height="20" as="geometry"/>
                </mxCell>
                <mxCell id="W1x5H0TamyeQpifjROW4-54" value="4" style="shape=partialRectangle;html=1;whiteSpace=wrap;connectable=0;fillColor=none;top=0;left=0;bottom=0;right=0;overflow=hidden;pointerEvents=1;labelBackgroundColor=none;fontSize=12;fontColor=#FF6666;fontStyle=1" vertex="1" parent="W1x5H0TamyeQpifjROW4-53">
                    <mxGeometry width="48" height="20" as="geometry">
                        <mxRectangle width="48" height="20" as="alternateBounds"/>
                    </mxGeometry>
                </mxCell>
                <mxCell id="W1x5H0TamyeQpifjROW4-55" value="2" style="shape=partialRectangle;html=1;whiteSpace=wrap;connectable=0;fillColor=none;top=0;left=0;bottom=0;right=0;overflow=hidden;pointerEvents=1;labelBackgroundColor=none;fontSize=12;fontColor=#FF6666;fontStyle=1" vertex="1" parent="W1x5H0TamyeQpifjROW4-53">
                    <mxGeometry x="48" width="33" height="20" as="geometry">
                        <mxRectangle width="33" height="20" as="alternateBounds"/>
                    </mxGeometry>
                </mxCell>
                <mxCell id="W1x5H0TamyeQpifjROW4-56" value="3" style="shape=partialRectangle;html=1;whiteSpace=wrap;connectable=0;fillColor=none;top=0;left=0;bottom=0;right=0;overflow=hidden;pointerEvents=1;labelBackgroundColor=none;fontSize=12;fontColor=#FF6666;fontStyle=1" vertex="1" parent="W1x5H0TamyeQpifjROW4-53">
                    <mxGeometry x="81" width="39" height="20" as="geometry">
                        <mxRectangle width="39" height="20" as="alternateBounds"/>
                    </mxGeometry>
                </mxCell>
                <mxCell id="W1x5H0TamyeQpifjROW4-57" value="&amp;lt;2,3&amp;gt;" style="shape=partialRectangle;html=1;whiteSpace=wrap;connectable=0;fillColor=none;top=0;left=0;bottom=0;right=0;overflow=hidden;pointerEvents=1;labelBackgroundColor=none;fontSize=12;fontColor=#FF6666;fontStyle=1" vertex="1" parent="W1x5H0TamyeQpifjROW4-53">
                    <mxGeometry x="120" width="120" height="20" as="geometry">
                        <mxRectangle width="120" height="20" as="alternateBounds"/>
                    </mxGeometry>
                </mxCell>
            </root>
        </mxGraphModel>
    </diagram>
    <diagram id="nIZt8ond77eS5Tg1tUm8" name="all-p-uses">
        <mxGraphModel dx="972" dy="631" grid="0" gridSize="10" guides="1" tooltips="1" connect="1" arrows="1" fold="1" page="1" pageScale="1" pageWidth="850" pageHeight="1100" math="0" shadow="0">
            <root>
                <mxCell id="7vOIX3K1kpgeapE1H8Yo-0"/>
                <mxCell id="7vOIX3K1kpgeapE1H8Yo-1" parent="7vOIX3K1kpgeapE1H8Yo-0"/>
                <mxCell id="7vOIX3K1kpgeapE1H8Yo-34" value="atts" style="shape=table;startSize=20;container=1;collapsible=0;childLayout=tableLayout;fontStyle=1;align=center;pointerEvents=1;labelBackgroundColor=none;fontSize=12;fillColor=#647687;fontColor=#ffffff;strokeColor=#314354;" vertex="1" parent="7vOIX3K1kpgeapE1H8Yo-1">
                    <mxGeometry x="565" y="60" width="240" height="120" as="geometry"/>
                </mxCell>
                <mxCell id="7vOIX3K1kpgeapE1H8Yo-35" value="" style="shape=partialRectangle;html=1;whiteSpace=wrap;collapsible=0;dropTarget=0;pointerEvents=0;fillColor=none;top=0;left=0;bottom=0;right=0;points=[[0,0.5],[1,0.5]];portConstraint=eastwest;labelBackgroundColor=none;fontSize=12;" vertex="1" parent="7vOIX3K1kpgeapE1H8Yo-34">
                    <mxGeometry y="20" width="240" height="20" as="geometry"/>
                </mxCell>
                <mxCell id="7vOIX3K1kpgeapE1H8Yo-36" value="Pair id" style="shape=partialRectangle;html=1;whiteSpace=wrap;connectable=0;fillColor=#ffe6cc;top=0;left=0;bottom=0;right=0;overflow=hidden;pointerEvents=1;labelBackgroundColor=none;fontSize=12;strokeColor=#000000;fontStyle=1;strokeWidth=1;" vertex="1" parent="7vOIX3K1kpgeapE1H8Yo-35">
                    <mxGeometry width="48" height="20" as="geometry">
                        <mxRectangle width="48" height="20" as="alternateBounds"/>
                    </mxGeometry>
                </mxCell>
                <mxCell id="7vOIX3K1kpgeapE1H8Yo-37" value="def" style="shape=partialRectangle;html=1;whiteSpace=wrap;connectable=0;fillColor=#ffe6cc;top=0;left=0;bottom=0;right=0;overflow=hidden;pointerEvents=1;labelBackgroundColor=none;fontSize=12;strokeColor=#000000;fontStyle=1;strokeWidth=1;" vertex="1" parent="7vOIX3K1kpgeapE1H8Yo-35">
                    <mxGeometry x="48" width="33" height="20" as="geometry">
                        <mxRectangle width="33" height="20" as="alternateBounds"/>
                    </mxGeometry>
                </mxCell>
                <mxCell id="7vOIX3K1kpgeapE1H8Yo-38" value="use" style="shape=partialRectangle;html=1;whiteSpace=wrap;connectable=0;fillColor=#ffe6cc;top=0;left=0;bottom=0;right=0;overflow=hidden;pointerEvents=1;labelBackgroundColor=none;fontSize=12;strokeColor=#000000;fontStyle=1;strokeWidth=1;" vertex="1" parent="7vOIX3K1kpgeapE1H8Yo-35">
                    <mxGeometry x="81" width="39" height="20" as="geometry">
                        <mxRectangle width="39" height="20" as="alternateBounds"/>
                    </mxGeometry>
                </mxCell>
                <mxCell id="7vOIX3K1kpgeapE1H8Yo-39" value="path" style="shape=partialRectangle;html=1;whiteSpace=wrap;connectable=0;fillColor=#ffe6cc;top=0;left=0;bottom=0;right=0;overflow=hidden;pointerEvents=1;labelBackgroundColor=none;fontSize=12;strokeColor=#000000;fontStyle=1;strokeWidth=1;" vertex="1" parent="7vOIX3K1kpgeapE1H8Yo-35">
                    <mxGeometry x="120" width="120" height="20" as="geometry">
                        <mxRectangle width="120" height="20" as="alternateBounds"/>
                    </mxGeometry>
                </mxCell>
                <mxCell id="7vOIX3K1kpgeapE1H8Yo-40" value="" style="shape=partialRectangle;html=1;whiteSpace=wrap;collapsible=0;dropTarget=0;pointerEvents=0;fillColor=none;top=0;left=0;bottom=0;right=0;points=[[0,0.5],[1,0.5]];portConstraint=eastwest;labelBackgroundColor=none;fontSize=12;" vertex="1" parent="7vOIX3K1kpgeapE1H8Yo-34">
                    <mxGeometry y="40" width="240" height="20" as="geometry"/>
                </mxCell>
                <mxCell id="7vOIX3K1kpgeapE1H8Yo-41" value="1" style="shape=partialRectangle;html=1;whiteSpace=wrap;connectable=0;fillColor=none;top=0;left=0;bottom=0;right=0;overflow=hidden;pointerEvents=1;labelBackgroundColor=none;fontSize=12;fontColor=#FF6666;fontStyle=1" vertex="1" parent="7vOIX3K1kpgeapE1H8Yo-40">
                    <mxGeometry width="48" height="20" as="geometry">
                        <mxRectangle width="48" height="20" as="alternateBounds"/>
                    </mxGeometry>
                </mxCell>
                <mxCell id="7vOIX3K1kpgeapE1H8Yo-42" value="0" style="shape=partialRectangle;html=1;whiteSpace=wrap;connectable=0;fillColor=none;top=0;left=0;bottom=0;right=0;overflow=hidden;pointerEvents=1;labelBackgroundColor=none;fontSize=12;fontColor=#FF6666;fontStyle=1" vertex="1" parent="7vOIX3K1kpgeapE1H8Yo-40">
                    <mxGeometry x="48" width="33" height="20" as="geometry">
                        <mxRectangle width="33" height="20" as="alternateBounds"/>
                    </mxGeometry>
                </mxCell>
                <mxCell id="7vOIX3K1kpgeapE1H8Yo-43" value="(1,T)" style="shape=partialRectangle;html=1;whiteSpace=wrap;connectable=0;fillColor=none;top=0;left=0;bottom=0;right=0;overflow=hidden;pointerEvents=1;labelBackgroundColor=none;fontSize=12;fontColor=#FF6666;fontStyle=1" vertex="1" parent="7vOIX3K1kpgeapE1H8Yo-40">
                    <mxGeometry x="81" width="39" height="20" as="geometry">
                        <mxRectangle width="39" height="20" as="alternateBounds"/>
                    </mxGeometry>
                </mxCell>
                <mxCell id="7vOIX3K1kpgeapE1H8Yo-44" value="&amp;lt;0,1,2&amp;gt;" style="shape=partialRectangle;html=1;whiteSpace=wrap;connectable=0;fillColor=none;top=0;left=0;bottom=0;right=0;overflow=hidden;pointerEvents=1;labelBackgroundColor=none;fontSize=12;fontColor=#FF6666;fontStyle=1" vertex="1" parent="7vOIX3K1kpgeapE1H8Yo-40">
                    <mxGeometry x="120" width="120" height="20" as="geometry">
                        <mxRectangle width="120" height="20" as="alternateBounds"/>
                    </mxGeometry>
                </mxCell>
                <mxCell id="7vOIX3K1kpgeapE1H8Yo-45" style="shape=partialRectangle;html=1;whiteSpace=wrap;collapsible=0;dropTarget=0;pointerEvents=0;fillColor=none;top=0;left=0;bottom=0;right=0;points=[[0,0.5],[1,0.5]];portConstraint=eastwest;labelBackgroundColor=none;fontSize=12;" vertex="1" parent="7vOIX3K1kpgeapE1H8Yo-34">
                    <mxGeometry y="60" width="240" height="20" as="geometry"/>
                </mxCell>
                <mxCell id="7vOIX3K1kpgeapE1H8Yo-46" value="2" style="shape=partialRectangle;html=1;whiteSpace=wrap;connectable=0;fillColor=none;top=0;left=0;bottom=0;right=0;overflow=hidden;pointerEvents=1;labelBackgroundColor=none;fontSize=12;fontStyle=1;fontColor=#FF6666;" vertex="1" parent="7vOIX3K1kpgeapE1H8Yo-45">
                    <mxGeometry width="48" height="20" as="geometry">
                        <mxRectangle width="48" height="20" as="alternateBounds"/>
                    </mxGeometry>
                </mxCell>
                <mxCell id="7vOIX3K1kpgeapE1H8Yo-47" value="0" style="shape=partialRectangle;html=1;whiteSpace=wrap;connectable=0;fillColor=none;top=0;left=0;bottom=0;right=0;overflow=hidden;pointerEvents=1;labelBackgroundColor=none;fontSize=12;fontStyle=1;fontColor=#FF6666;" vertex="1" parent="7vOIX3K1kpgeapE1H8Yo-45">
                    <mxGeometry x="48" width="33" height="20" as="geometry">
                        <mxRectangle width="33" height="20" as="alternateBounds"/>
                    </mxGeometry>
                </mxCell>
                <mxCell id="7vOIX3K1kpgeapE1H8Yo-48" value="(1,F)" style="shape=partialRectangle;html=1;whiteSpace=wrap;connectable=0;fillColor=none;top=0;left=0;bottom=0;right=0;overflow=hidden;pointerEvents=1;labelBackgroundColor=none;fontSize=12;fontStyle=1;fontColor=#FF6666;" vertex="1" parent="7vOIX3K1kpgeapE1H8Yo-45">
                    <mxGeometry x="81" width="39" height="20" as="geometry">
                        <mxRectangle width="39" height="20" as="alternateBounds"/>
                    </mxGeometry>
                </mxCell>
                <mxCell id="7vOIX3K1kpgeapE1H8Yo-49" value="&amp;lt;0,1,3&amp;gt;" style="shape=partialRectangle;html=1;whiteSpace=wrap;connectable=0;fillColor=none;top=0;left=0;bottom=0;right=0;overflow=hidden;pointerEvents=1;labelBackgroundColor=none;fontSize=12;fontStyle=1;fontColor=#FF6666;" vertex="1" parent="7vOIX3K1kpgeapE1H8Yo-45">
                    <mxGeometry x="120" width="120" height="20" as="geometry">
                        <mxRectangle width="120" height="20" as="alternateBounds"/>
                    </mxGeometry>
                </mxCell>
                <mxCell id="7vOIX3K1kpgeapE1H8Yo-50" style="shape=partialRectangle;html=1;whiteSpace=wrap;collapsible=0;dropTarget=0;pointerEvents=0;fillColor=none;top=0;left=0;bottom=0;right=0;points=[[0,0.5],[1,0.5]];portConstraint=eastwest;labelBackgroundColor=none;fontSize=12;" vertex="1" parent="7vOIX3K1kpgeapE1H8Yo-34">
                    <mxGeometry y="80" width="240" height="20" as="geometry"/>
                </mxCell>
                <mxCell id="7vOIX3K1kpgeapE1H8Yo-51" value="3" style="shape=partialRectangle;html=1;whiteSpace=wrap;connectable=0;fillColor=none;top=0;left=0;bottom=0;right=0;overflow=hidden;pointerEvents=1;labelBackgroundColor=none;fontSize=12;fontColor=#000000;fontStyle=0" vertex="1" parent="7vOIX3K1kpgeapE1H8Yo-50">
                    <mxGeometry width="48" height="20" as="geometry">
                        <mxRectangle width="48" height="20" as="alternateBounds"/>
                    </mxGeometry>
                </mxCell>
                <mxCell id="7vOIX3K1kpgeapE1H8Yo-52" value="0" style="shape=partialRectangle;html=1;whiteSpace=wrap;connectable=0;fillColor=none;top=0;left=0;bottom=0;right=0;overflow=hidden;pointerEvents=1;labelBackgroundColor=none;fontSize=12;fontColor=#000000;fontStyle=0" vertex="1" parent="7vOIX3K1kpgeapE1H8Yo-50">
                    <mxGeometry x="48" width="33" height="20" as="geometry">
                        <mxRectangle width="33" height="20" as="alternateBounds"/>
                    </mxGeometry>
                </mxCell>
                <mxCell id="7vOIX3K1kpgeapE1H8Yo-53" value="3" style="shape=partialRectangle;html=1;whiteSpace=wrap;connectable=0;fillColor=none;top=0;left=0;bottom=0;right=0;overflow=hidden;pointerEvents=1;labelBackgroundColor=none;fontSize=12;fontColor=#000000;fontStyle=0" vertex="1" parent="7vOIX3K1kpgeapE1H8Yo-50">
                    <mxGeometry x="81" width="39" height="20" as="geometry">
                        <mxRectangle width="39" height="20" as="alternateBounds"/>
                    </mxGeometry>
                </mxCell>
                <mxCell id="7vOIX3K1kpgeapE1H8Yo-54" value="&amp;lt;0,1,3&amp;gt;" style="shape=partialRectangle;html=1;whiteSpace=wrap;connectable=0;fillColor=none;top=0;left=0;bottom=0;right=0;overflow=hidden;pointerEvents=1;labelBackgroundColor=none;fontSize=12;fontColor=#000000;fontStyle=0" vertex="1" parent="7vOIX3K1kpgeapE1H8Yo-50">
                    <mxGeometry x="120" width="120" height="20" as="geometry">
                        <mxRectangle width="120" height="20" as="alternateBounds"/>
                    </mxGeometry>
                </mxCell>
                <mxCell id="7vOIX3K1kpgeapE1H8Yo-55" style="shape=partialRectangle;html=1;whiteSpace=wrap;collapsible=0;dropTarget=0;pointerEvents=0;fillColor=none;top=0;left=0;bottom=0;right=0;points=[[0,0.5],[1,0.5]];portConstraint=eastwest;labelBackgroundColor=none;fontSize=12;" vertex="1" parent="7vOIX3K1kpgeapE1H8Yo-34">
                    <mxGeometry y="100" width="240" height="20" as="geometry"/>
                </mxCell>
                <mxCell id="7vOIX3K1kpgeapE1H8Yo-56" value="4" style="shape=partialRectangle;html=1;whiteSpace=wrap;connectable=0;fillColor=none;top=0;left=0;bottom=0;right=0;overflow=hidden;pointerEvents=1;labelBackgroundColor=none;fontSize=12;fontColor=#000000;fontStyle=0" vertex="1" parent="7vOIX3K1kpgeapE1H8Yo-55">
                    <mxGeometry width="48" height="20" as="geometry">
                        <mxRectangle width="48" height="20" as="alternateBounds"/>
                    </mxGeometry>
                </mxCell>
                <mxCell id="7vOIX3K1kpgeapE1H8Yo-57" value="2" style="shape=partialRectangle;html=1;whiteSpace=wrap;connectable=0;fillColor=none;top=0;left=0;bottom=0;right=0;overflow=hidden;pointerEvents=1;labelBackgroundColor=none;fontSize=12;fontColor=#000000;fontStyle=0" vertex="1" parent="7vOIX3K1kpgeapE1H8Yo-55">
                    <mxGeometry x="48" width="33" height="20" as="geometry">
                        <mxRectangle width="33" height="20" as="alternateBounds"/>
                    </mxGeometry>
                </mxCell>
                <mxCell id="7vOIX3K1kpgeapE1H8Yo-58" value="3" style="shape=partialRectangle;html=1;whiteSpace=wrap;connectable=0;fillColor=none;top=0;left=0;bottom=0;right=0;overflow=hidden;pointerEvents=1;labelBackgroundColor=none;fontSize=12;fontColor=#000000;fontStyle=0" vertex="1" parent="7vOIX3K1kpgeapE1H8Yo-55">
                    <mxGeometry x="81" width="39" height="20" as="geometry">
                        <mxRectangle width="39" height="20" as="alternateBounds"/>
                    </mxGeometry>
                </mxCell>
                <mxCell id="7vOIX3K1kpgeapE1H8Yo-59" value="&amp;lt;2,3&amp;gt;" style="shape=partialRectangle;html=1;whiteSpace=wrap;connectable=0;fillColor=none;top=0;left=0;bottom=0;right=0;overflow=hidden;pointerEvents=1;labelBackgroundColor=none;fontSize=12;fontColor=#000000;fontStyle=0" vertex="1" parent="7vOIX3K1kpgeapE1H8Yo-55">
                    <mxGeometry x="120" width="120" height="20" as="geometry">
                        <mxRectangle width="120" height="20" as="alternateBounds"/>
                    </mxGeometry>
                </mxCell>
                <mxCell id="-Zwt1JIjhNLg5lDrsa_O-0" value="hd" style="shape=table;startSize=20;container=1;collapsible=0;childLayout=tableLayout;fontStyle=1;align=center;pointerEvents=1;labelBackgroundColor=none;fontSize=12;fillColor=#647687;fontColor=#ffffff;strokeColor=#314354;" vertex="1" parent="7vOIX3K1kpgeapE1H8Yo-1">
                    <mxGeometry x="45" y="60" width="240" height="80" as="geometry"/>
                </mxCell>
                <mxCell id="-Zwt1JIjhNLg5lDrsa_O-1" value="" style="shape=partialRectangle;html=1;whiteSpace=wrap;collapsible=0;dropTarget=0;pointerEvents=0;fillColor=none;top=0;left=0;bottom=0;right=0;points=[[0,0.5],[1,0.5]];portConstraint=eastwest;labelBackgroundColor=none;fontSize=12;" vertex="1" parent="-Zwt1JIjhNLg5lDrsa_O-0">
                    <mxGeometry y="20" width="240" height="20" as="geometry"/>
                </mxCell>
                <mxCell id="-Zwt1JIjhNLg5lDrsa_O-2" value="Pair id" style="shape=partialRectangle;html=1;whiteSpace=wrap;connectable=0;fillColor=#ffe6cc;top=0;left=0;bottom=0;right=0;overflow=hidden;pointerEvents=1;labelBackgroundColor=none;fontSize=12;strokeColor=#000000;fontStyle=1;strokeWidth=1;" vertex="1" parent="-Zwt1JIjhNLg5lDrsa_O-1">
                    <mxGeometry width="48" height="20" as="geometry">
                        <mxRectangle width="48" height="20" as="alternateBounds"/>
                    </mxGeometry>
                </mxCell>
                <mxCell id="-Zwt1JIjhNLg5lDrsa_O-3" value="def" style="shape=partialRectangle;html=1;whiteSpace=wrap;connectable=0;fillColor=#ffe6cc;top=0;left=0;bottom=0;right=0;overflow=hidden;pointerEvents=1;labelBackgroundColor=none;fontSize=12;strokeColor=#000000;fontStyle=1;strokeWidth=1;" vertex="1" parent="-Zwt1JIjhNLg5lDrsa_O-1">
                    <mxGeometry x="48" width="33" height="20" as="geometry">
                        <mxRectangle width="33" height="20" as="alternateBounds"/>
                    </mxGeometry>
                </mxCell>
                <mxCell id="-Zwt1JIjhNLg5lDrsa_O-4" value="use" style="shape=partialRectangle;html=1;whiteSpace=wrap;connectable=0;fillColor=#ffe6cc;top=0;left=0;bottom=0;right=0;overflow=hidden;pointerEvents=1;labelBackgroundColor=none;fontSize=12;strokeColor=#000000;fontStyle=1;strokeWidth=1;" vertex="1" parent="-Zwt1JIjhNLg5lDrsa_O-1">
                    <mxGeometry x="81" width="39" height="20" as="geometry">
                        <mxRectangle width="39" height="20" as="alternateBounds"/>
                    </mxGeometry>
                </mxCell>
                <mxCell id="-Zwt1JIjhNLg5lDrsa_O-5" value="path" style="shape=partialRectangle;html=1;whiteSpace=wrap;connectable=0;fillColor=#ffe6cc;top=0;left=0;bottom=0;right=0;overflow=hidden;pointerEvents=1;labelBackgroundColor=none;fontSize=12;strokeColor=#000000;fontStyle=1;strokeWidth=1;" vertex="1" parent="-Zwt1JIjhNLg5lDrsa_O-1">
                    <mxGeometry x="120" width="120" height="20" as="geometry">
                        <mxRectangle width="120" height="20" as="alternateBounds"/>
                    </mxGeometry>
                </mxCell>
                <mxCell id="-Zwt1JIjhNLg5lDrsa_O-6" value="" style="shape=partialRectangle;html=1;whiteSpace=wrap;collapsible=0;dropTarget=0;pointerEvents=0;fillColor=none;top=0;left=0;bottom=0;right=0;points=[[0,0.5],[1,0.5]];portConstraint=eastwest;labelBackgroundColor=none;fontSize=12;" vertex="1" parent="-Zwt1JIjhNLg5lDrsa_O-0">
                    <mxGeometry y="40" width="240" height="20" as="geometry"/>
                </mxCell>
                <mxCell id="-Zwt1JIjhNLg5lDrsa_O-7" value="1" style="shape=partialRectangle;html=1;whiteSpace=wrap;connectable=0;fillColor=none;top=0;left=0;bottom=0;right=0;overflow=hidden;pointerEvents=1;labelBackgroundColor=none;fontSize=12;" vertex="1" parent="-Zwt1JIjhNLg5lDrsa_O-6">
                    <mxGeometry width="48" height="20" as="geometry">
                        <mxRectangle width="48" height="20" as="alternateBounds"/>
                    </mxGeometry>
                </mxCell>
                <mxCell id="-Zwt1JIjhNLg5lDrsa_O-8" value="0" style="shape=partialRectangle;html=1;whiteSpace=wrap;connectable=0;fillColor=none;top=0;left=0;bottom=0;right=0;overflow=hidden;pointerEvents=1;labelBackgroundColor=none;fontSize=12;" vertex="1" parent="-Zwt1JIjhNLg5lDrsa_O-6">
                    <mxGeometry x="48" width="33" height="20" as="geometry">
                        <mxRectangle width="33" height="20" as="alternateBounds"/>
                    </mxGeometry>
                </mxCell>
                <mxCell id="-Zwt1JIjhNLg5lDrsa_O-9" value="3" style="shape=partialRectangle;html=1;whiteSpace=wrap;connectable=0;fillColor=none;top=0;left=0;bottom=0;right=0;overflow=hidden;pointerEvents=1;labelBackgroundColor=none;fontSize=12;" vertex="1" parent="-Zwt1JIjhNLg5lDrsa_O-6">
                    <mxGeometry x="81" width="39" height="20" as="geometry">
                        <mxRectangle width="39" height="20" as="alternateBounds"/>
                    </mxGeometry>
                </mxCell>
                <mxCell id="-Zwt1JIjhNLg5lDrsa_O-10" value="&amp;lt;0,1,3&amp;gt;" style="shape=partialRectangle;html=1;whiteSpace=wrap;connectable=0;fillColor=none;top=0;left=0;bottom=0;right=0;overflow=hidden;pointerEvents=1;labelBackgroundColor=none;fontSize=12;" vertex="1" parent="-Zwt1JIjhNLg5lDrsa_O-6">
                    <mxGeometry x="120" width="120" height="20" as="geometry">
                        <mxRectangle width="120" height="20" as="alternateBounds"/>
                    </mxGeometry>
                </mxCell>
                <mxCell id="-Zwt1JIjhNLg5lDrsa_O-11" style="shape=partialRectangle;html=1;whiteSpace=wrap;collapsible=0;dropTarget=0;pointerEvents=0;fillColor=none;top=0;left=0;bottom=0;right=0;points=[[0,0.5],[1,0.5]];portConstraint=eastwest;labelBackgroundColor=none;fontSize=12;" vertex="1" parent="-Zwt1JIjhNLg5lDrsa_O-0">
                    <mxGeometry y="60" width="240" height="20" as="geometry"/>
                </mxCell>
                <mxCell id="-Zwt1JIjhNLg5lDrsa_O-12" value="2" style="shape=partialRectangle;html=1;whiteSpace=wrap;connectable=0;fillColor=none;top=0;left=0;bottom=0;right=0;overflow=hidden;pointerEvents=1;labelBackgroundColor=none;fontSize=12;" vertex="1" parent="-Zwt1JIjhNLg5lDrsa_O-11">
                    <mxGeometry width="48" height="20" as="geometry">
                        <mxRectangle width="48" height="20" as="alternateBounds"/>
                    </mxGeometry>
                </mxCell>
                <mxCell id="-Zwt1JIjhNLg5lDrsa_O-13" value="0" style="shape=partialRectangle;html=1;whiteSpace=wrap;connectable=0;fillColor=none;top=0;left=0;bottom=0;right=0;overflow=hidden;pointerEvents=1;labelBackgroundColor=none;fontSize=12;" vertex="1" parent="-Zwt1JIjhNLg5lDrsa_O-11">
                    <mxGeometry x="48" width="33" height="20" as="geometry">
                        <mxRectangle width="33" height="20" as="alternateBounds"/>
                    </mxGeometry>
                </mxCell>
                <mxCell id="-Zwt1JIjhNLg5lDrsa_O-14" value="3" style="shape=partialRectangle;html=1;whiteSpace=wrap;connectable=0;fillColor=none;top=0;left=0;bottom=0;right=0;overflow=hidden;pointerEvents=1;labelBackgroundColor=none;fontSize=12;" vertex="1" parent="-Zwt1JIjhNLg5lDrsa_O-11">
                    <mxGeometry x="81" width="39" height="20" as="geometry">
                        <mxRectangle width="39" height="20" as="alternateBounds"/>
                    </mxGeometry>
                </mxCell>
                <mxCell id="-Zwt1JIjhNLg5lDrsa_O-15" value="&amp;lt;0,1,2,3&amp;gt;" style="shape=partialRectangle;html=1;whiteSpace=wrap;connectable=0;fillColor=none;top=0;left=0;bottom=0;right=0;overflow=hidden;pointerEvents=1;labelBackgroundColor=none;fontSize=12;" vertex="1" parent="-Zwt1JIjhNLg5lDrsa_O-11">
                    <mxGeometry x="120" width="120" height="20" as="geometry">
                        <mxRectangle width="120" height="20" as="alternateBounds"/>
                    </mxGeometry>
                </mxCell>
                <mxCell id="-Zwt1JIjhNLg5lDrsa_O-16" value="element" style="shape=table;startSize=20;container=1;collapsible=0;childLayout=tableLayout;fontStyle=1;align=center;pointerEvents=1;labelBackgroundColor=none;fontSize=12;fillColor=#647687;fontColor=#ffffff;strokeColor=#314354;" vertex="1" parent="7vOIX3K1kpgeapE1H8Yo-1">
                    <mxGeometry x="305" y="60" width="240" height="80" as="geometry"/>
                </mxCell>
                <mxCell id="-Zwt1JIjhNLg5lDrsa_O-17" value="" style="shape=partialRectangle;html=1;whiteSpace=wrap;collapsible=0;dropTarget=0;pointerEvents=0;fillColor=none;top=0;left=0;bottom=0;right=0;points=[[0,0.5],[1,0.5]];portConstraint=eastwest;labelBackgroundColor=none;fontSize=12;" vertex="1" parent="-Zwt1JIjhNLg5lDrsa_O-16">
                    <mxGeometry y="20" width="240" height="20" as="geometry"/>
                </mxCell>
                <mxCell id="-Zwt1JIjhNLg5lDrsa_O-18" value="Pair id" style="shape=partialRectangle;html=1;whiteSpace=wrap;connectable=0;fillColor=#ffe6cc;top=0;left=0;bottom=0;right=0;overflow=hidden;pointerEvents=1;labelBackgroundColor=none;fontSize=12;strokeColor=#000000;fontStyle=1;strokeWidth=1;" vertex="1" parent="-Zwt1JIjhNLg5lDrsa_O-17">
                    <mxGeometry width="48" height="20" as="geometry">
                        <mxRectangle width="48" height="20" as="alternateBounds"/>
                    </mxGeometry>
                </mxCell>
                <mxCell id="-Zwt1JIjhNLg5lDrsa_O-19" value="def" style="shape=partialRectangle;html=1;whiteSpace=wrap;connectable=0;fillColor=#ffe6cc;top=0;left=0;bottom=0;right=0;overflow=hidden;pointerEvents=1;labelBackgroundColor=none;fontSize=12;strokeColor=#000000;fontStyle=1;strokeWidth=1;" vertex="1" parent="-Zwt1JIjhNLg5lDrsa_O-17">
                    <mxGeometry x="48" width="33" height="20" as="geometry">
                        <mxRectangle width="33" height="20" as="alternateBounds"/>
                    </mxGeometry>
                </mxCell>
                <mxCell id="-Zwt1JIjhNLg5lDrsa_O-20" value="use" style="shape=partialRectangle;html=1;whiteSpace=wrap;connectable=0;fillColor=#ffe6cc;top=0;left=0;bottom=0;right=0;overflow=hidden;pointerEvents=1;labelBackgroundColor=none;fontSize=12;strokeColor=#000000;fontStyle=1;strokeWidth=1;" vertex="1" parent="-Zwt1JIjhNLg5lDrsa_O-17">
                    <mxGeometry x="81" width="39" height="20" as="geometry">
                        <mxRectangle width="39" height="20" as="alternateBounds"/>
                    </mxGeometry>
                </mxCell>
                <mxCell id="-Zwt1JIjhNLg5lDrsa_O-21" value="path" style="shape=partialRectangle;html=1;whiteSpace=wrap;connectable=0;fillColor=#ffe6cc;top=0;left=0;bottom=0;right=0;overflow=hidden;pointerEvents=1;labelBackgroundColor=none;fontSize=12;strokeColor=#000000;fontStyle=1;strokeWidth=1;" vertex="1" parent="-Zwt1JIjhNLg5lDrsa_O-17">
                    <mxGeometry x="120" width="120" height="20" as="geometry">
                        <mxRectangle width="120" height="20" as="alternateBounds"/>
                    </mxGeometry>
                </mxCell>
                <mxCell id="-Zwt1JIjhNLg5lDrsa_O-22" value="" style="shape=partialRectangle;html=1;whiteSpace=wrap;collapsible=0;dropTarget=0;pointerEvents=0;fillColor=none;top=0;left=0;bottom=0;right=0;points=[[0,0.5],[1,0.5]];portConstraint=eastwest;labelBackgroundColor=none;fontSize=12;" vertex="1" parent="-Zwt1JIjhNLg5lDrsa_O-16">
                    <mxGeometry y="40" width="240" height="20" as="geometry"/>
                </mxCell>
                <mxCell id="-Zwt1JIjhNLg5lDrsa_O-23" value="1" style="shape=partialRectangle;html=1;whiteSpace=wrap;connectable=0;fillColor=none;top=0;left=0;bottom=0;right=0;overflow=hidden;pointerEvents=1;labelBackgroundColor=none;fontSize=12;" vertex="1" parent="-Zwt1JIjhNLg5lDrsa_O-22">
                    <mxGeometry width="48" height="20" as="geometry">
                        <mxRectangle width="48" height="20" as="alternateBounds"/>
                    </mxGeometry>
                </mxCell>
                <mxCell id="-Zwt1JIjhNLg5lDrsa_O-24" value="0" style="shape=partialRectangle;html=1;whiteSpace=wrap;connectable=0;fillColor=none;top=0;left=0;bottom=0;right=0;overflow=hidden;pointerEvents=1;labelBackgroundColor=none;fontSize=12;" vertex="1" parent="-Zwt1JIjhNLg5lDrsa_O-22">
                    <mxGeometry x="48" width="33" height="20" as="geometry">
                        <mxRectangle width="33" height="20" as="alternateBounds"/>
                    </mxGeometry>
                </mxCell>
                <mxCell id="-Zwt1JIjhNLg5lDrsa_O-25" value="3" style="shape=partialRectangle;html=1;whiteSpace=wrap;connectable=0;fillColor=none;top=0;left=0;bottom=0;right=0;overflow=hidden;pointerEvents=1;labelBackgroundColor=none;fontSize=12;" vertex="1" parent="-Zwt1JIjhNLg5lDrsa_O-22">
                    <mxGeometry x="81" width="39" height="20" as="geometry">
                        <mxRectangle width="39" height="20" as="alternateBounds"/>
                    </mxGeometry>
                </mxCell>
                <mxCell id="-Zwt1JIjhNLg5lDrsa_O-26" value="&amp;lt;0,1,3&amp;gt;" style="shape=partialRectangle;html=1;whiteSpace=wrap;connectable=0;fillColor=none;top=0;left=0;bottom=0;right=0;overflow=hidden;pointerEvents=1;labelBackgroundColor=none;fontSize=12;" vertex="1" parent="-Zwt1JIjhNLg5lDrsa_O-22">
                    <mxGeometry x="120" width="120" height="20" as="geometry">
                        <mxRectangle width="120" height="20" as="alternateBounds"/>
                    </mxGeometry>
                </mxCell>
                <mxCell id="-Zwt1JIjhNLg5lDrsa_O-27" style="shape=partialRectangle;html=1;whiteSpace=wrap;collapsible=0;dropTarget=0;pointerEvents=0;fillColor=none;top=0;left=0;bottom=0;right=0;points=[[0,0.5],[1,0.5]];portConstraint=eastwest;labelBackgroundColor=none;fontSize=12;" vertex="1" parent="-Zwt1JIjhNLg5lDrsa_O-16">
                    <mxGeometry y="60" width="240" height="20" as="geometry"/>
                </mxCell>
                <mxCell id="-Zwt1JIjhNLg5lDrsa_O-28" value="2" style="shape=partialRectangle;html=1;whiteSpace=wrap;connectable=0;fillColor=none;top=0;left=0;bottom=0;right=0;overflow=hidden;pointerEvents=1;labelBackgroundColor=none;fontSize=12;" vertex="1" parent="-Zwt1JIjhNLg5lDrsa_O-27">
                    <mxGeometry width="48" height="20" as="geometry">
                        <mxRectangle width="48" height="20" as="alternateBounds"/>
                    </mxGeometry>
                </mxCell>
                <mxCell id="-Zwt1JIjhNLg5lDrsa_O-29" value="0" style="shape=partialRectangle;html=1;whiteSpace=wrap;connectable=0;fillColor=none;top=0;left=0;bottom=0;right=0;overflow=hidden;pointerEvents=1;labelBackgroundColor=none;fontSize=12;" vertex="1" parent="-Zwt1JIjhNLg5lDrsa_O-27">
                    <mxGeometry x="48" width="33" height="20" as="geometry">
                        <mxRectangle width="33" height="20" as="alternateBounds"/>
                    </mxGeometry>
                </mxCell>
                <mxCell id="-Zwt1JIjhNLg5lDrsa_O-30" value="3" style="shape=partialRectangle;html=1;whiteSpace=wrap;connectable=0;fillColor=none;top=0;left=0;bottom=0;right=0;overflow=hidden;pointerEvents=1;labelBackgroundColor=none;fontSize=12;" vertex="1" parent="-Zwt1JIjhNLg5lDrsa_O-27">
                    <mxGeometry x="81" width="39" height="20" as="geometry">
                        <mxRectangle width="39" height="20" as="alternateBounds"/>
                    </mxGeometry>
                </mxCell>
                <mxCell id="-Zwt1JIjhNLg5lDrsa_O-31" value="&amp;lt;01,2,3&amp;gt;" style="shape=partialRectangle;html=1;whiteSpace=wrap;connectable=0;fillColor=none;top=0;left=0;bottom=0;right=0;overflow=hidden;pointerEvents=1;labelBackgroundColor=none;fontSize=12;" vertex="1" parent="-Zwt1JIjhNLg5lDrsa_O-27">
                    <mxGeometry x="120" width="120" height="20" as="geometry">
                        <mxRectangle width="120" height="20" as="alternateBounds"/>
                    </mxGeometry>
                </mxCell>
            </root>
        </mxGraphModel>
    </diagram>
    <diagram id="OGELuFQzN6w42eAuPxdz" name="all-uses">
        <mxGraphModel dx="972" dy="631" grid="0" gridSize="10" guides="1" tooltips="1" connect="1" arrows="1" fold="1" page="1" pageScale="1" pageWidth="850" pageHeight="1100" math="0" shadow="0">
            <root>
                <mxCell id="Ij_pz8tb1Nzk4vU_xCQM-0"/>
                <mxCell id="Ij_pz8tb1Nzk4vU_xCQM-1" parent="Ij_pz8tb1Nzk4vU_xCQM-0"/>
                <mxCell id="Ij_pz8tb1Nzk4vU_xCQM-2" value="hd" style="shape=table;startSize=20;container=1;collapsible=0;childLayout=tableLayout;fontStyle=1;align=center;pointerEvents=1;labelBackgroundColor=none;fontSize=12;fillColor=#647687;fontColor=#ffffff;strokeColor=#314354;" vertex="1" parent="Ij_pz8tb1Nzk4vU_xCQM-1">
                    <mxGeometry x="45" y="60" width="240" height="80" as="geometry"/>
                </mxCell>
                <mxCell id="Ij_pz8tb1Nzk4vU_xCQM-3" value="" style="shape=partialRectangle;html=1;whiteSpace=wrap;collapsible=0;dropTarget=0;pointerEvents=0;fillColor=none;top=0;left=0;bottom=0;right=0;points=[[0,0.5],[1,0.5]];portConstraint=eastwest;labelBackgroundColor=none;fontSize=12;" vertex="1" parent="Ij_pz8tb1Nzk4vU_xCQM-2">
                    <mxGeometry y="20" width="240" height="20" as="geometry"/>
                </mxCell>
                <mxCell id="Ij_pz8tb1Nzk4vU_xCQM-4" value="Pair id" style="shape=partialRectangle;html=1;whiteSpace=wrap;connectable=0;fillColor=#ffe6cc;top=0;left=0;bottom=0;right=0;overflow=hidden;pointerEvents=1;labelBackgroundColor=none;fontSize=12;strokeColor=#000000;fontStyle=1;strokeWidth=1;" vertex="1" parent="Ij_pz8tb1Nzk4vU_xCQM-3">
                    <mxGeometry width="48" height="20" as="geometry">
                        <mxRectangle width="48" height="20" as="alternateBounds"/>
                    </mxGeometry>
                </mxCell>
                <mxCell id="Ij_pz8tb1Nzk4vU_xCQM-5" value="def" style="shape=partialRectangle;html=1;whiteSpace=wrap;connectable=0;fillColor=#ffe6cc;top=0;left=0;bottom=0;right=0;overflow=hidden;pointerEvents=1;labelBackgroundColor=none;fontSize=12;strokeColor=#000000;fontStyle=1;strokeWidth=1;" vertex="1" parent="Ij_pz8tb1Nzk4vU_xCQM-3">
                    <mxGeometry x="48" width="33" height="20" as="geometry">
                        <mxRectangle width="33" height="20" as="alternateBounds"/>
                    </mxGeometry>
                </mxCell>
                <mxCell id="Ij_pz8tb1Nzk4vU_xCQM-6" value="use" style="shape=partialRectangle;html=1;whiteSpace=wrap;connectable=0;fillColor=#ffe6cc;top=0;left=0;bottom=0;right=0;overflow=hidden;pointerEvents=1;labelBackgroundColor=none;fontSize=12;strokeColor=#000000;fontStyle=1;strokeWidth=1;" vertex="1" parent="Ij_pz8tb1Nzk4vU_xCQM-3">
                    <mxGeometry x="81" width="39" height="20" as="geometry">
                        <mxRectangle width="39" height="20" as="alternateBounds"/>
                    </mxGeometry>
                </mxCell>
                <mxCell id="Ij_pz8tb1Nzk4vU_xCQM-7" value="path" style="shape=partialRectangle;html=1;whiteSpace=wrap;connectable=0;fillColor=#ffe6cc;top=0;left=0;bottom=0;right=0;overflow=hidden;pointerEvents=1;labelBackgroundColor=none;fontSize=12;strokeColor=#000000;fontStyle=1;strokeWidth=1;" vertex="1" parent="Ij_pz8tb1Nzk4vU_xCQM-3">
                    <mxGeometry x="120" width="120" height="20" as="geometry">
                        <mxRectangle width="120" height="20" as="alternateBounds"/>
                    </mxGeometry>
                </mxCell>
                <mxCell id="Ij_pz8tb1Nzk4vU_xCQM-8" value="" style="shape=partialRectangle;html=1;whiteSpace=wrap;collapsible=0;dropTarget=0;pointerEvents=0;fillColor=none;top=0;left=0;bottom=0;right=0;points=[[0,0.5],[1,0.5]];portConstraint=eastwest;labelBackgroundColor=none;fontSize=12;" vertex="1" parent="Ij_pz8tb1Nzk4vU_xCQM-2">
                    <mxGeometry y="40" width="240" height="20" as="geometry"/>
                </mxCell>
                <mxCell id="Ij_pz8tb1Nzk4vU_xCQM-9" value="1" style="shape=partialRectangle;html=1;whiteSpace=wrap;connectable=0;fillColor=none;top=0;left=0;bottom=0;right=0;overflow=hidden;pointerEvents=1;labelBackgroundColor=none;fontSize=12;fontColor=#FF6666;fontStyle=1" vertex="1" parent="Ij_pz8tb1Nzk4vU_xCQM-8">
                    <mxGeometry width="48" height="20" as="geometry">
                        <mxRectangle width="48" height="20" as="alternateBounds"/>
                    </mxGeometry>
                </mxCell>
                <mxCell id="Ij_pz8tb1Nzk4vU_xCQM-10" value="0" style="shape=partialRectangle;html=1;whiteSpace=wrap;connectable=0;fillColor=none;top=0;left=0;bottom=0;right=0;overflow=hidden;pointerEvents=1;labelBackgroundColor=none;fontSize=12;fontColor=#FF6666;fontStyle=1" vertex="1" parent="Ij_pz8tb1Nzk4vU_xCQM-8">
                    <mxGeometry x="48" width="33" height="20" as="geometry">
                        <mxRectangle width="33" height="20" as="alternateBounds"/>
                    </mxGeometry>
                </mxCell>
                <mxCell id="Ij_pz8tb1Nzk4vU_xCQM-11" value="3" style="shape=partialRectangle;html=1;whiteSpace=wrap;connectable=0;fillColor=none;top=0;left=0;bottom=0;right=0;overflow=hidden;pointerEvents=1;labelBackgroundColor=none;fontSize=12;fontColor=#FF6666;fontStyle=1" vertex="1" parent="Ij_pz8tb1Nzk4vU_xCQM-8">
                    <mxGeometry x="81" width="39" height="20" as="geometry">
                        <mxRectangle width="39" height="20" as="alternateBounds"/>
                    </mxGeometry>
                </mxCell>
                <mxCell id="Ij_pz8tb1Nzk4vU_xCQM-12" value="&amp;lt;0,1,3&amp;gt;" style="shape=partialRectangle;html=1;whiteSpace=wrap;connectable=0;fillColor=none;top=0;left=0;bottom=0;right=0;overflow=hidden;pointerEvents=1;labelBackgroundColor=none;fontSize=12;fontColor=#FF6666;fontStyle=1" vertex="1" parent="Ij_pz8tb1Nzk4vU_xCQM-8">
                    <mxGeometry x="120" width="120" height="20" as="geometry">
                        <mxRectangle width="120" height="20" as="alternateBounds"/>
                    </mxGeometry>
                </mxCell>
                <mxCell id="Ij_pz8tb1Nzk4vU_xCQM-13" style="shape=partialRectangle;html=1;whiteSpace=wrap;collapsible=0;dropTarget=0;pointerEvents=0;fillColor=none;top=0;left=0;bottom=0;right=0;points=[[0,0.5],[1,0.5]];portConstraint=eastwest;labelBackgroundColor=none;fontSize=12;" vertex="1" parent="Ij_pz8tb1Nzk4vU_xCQM-2">
                    <mxGeometry y="60" width="240" height="20" as="geometry"/>
                </mxCell>
                <mxCell id="Ij_pz8tb1Nzk4vU_xCQM-14" value="2" style="shape=partialRectangle;html=1;whiteSpace=wrap;connectable=0;fillColor=none;top=0;left=0;bottom=0;right=0;overflow=hidden;pointerEvents=1;labelBackgroundColor=none;fontSize=12;fontColor=#000000;fontStyle=0" vertex="1" parent="Ij_pz8tb1Nzk4vU_xCQM-13">
                    <mxGeometry width="48" height="20" as="geometry">
                        <mxRectangle width="48" height="20" as="alternateBounds"/>
                    </mxGeometry>
                </mxCell>
                <mxCell id="Ij_pz8tb1Nzk4vU_xCQM-15" value="0" style="shape=partialRectangle;html=1;whiteSpace=wrap;connectable=0;fillColor=none;top=0;left=0;bottom=0;right=0;overflow=hidden;pointerEvents=1;labelBackgroundColor=none;fontSize=12;fontColor=#000000;fontStyle=0" vertex="1" parent="Ij_pz8tb1Nzk4vU_xCQM-13">
                    <mxGeometry x="48" width="33" height="20" as="geometry">
                        <mxRectangle width="33" height="20" as="alternateBounds"/>
                    </mxGeometry>
                </mxCell>
                <mxCell id="Ij_pz8tb1Nzk4vU_xCQM-16" value="3" style="shape=partialRectangle;html=1;whiteSpace=wrap;connectable=0;fillColor=none;top=0;left=0;bottom=0;right=0;overflow=hidden;pointerEvents=1;labelBackgroundColor=none;fontSize=12;fontColor=#000000;fontStyle=0" vertex="1" parent="Ij_pz8tb1Nzk4vU_xCQM-13">
                    <mxGeometry x="81" width="39" height="20" as="geometry">
                        <mxRectangle width="39" height="20" as="alternateBounds"/>
                    </mxGeometry>
                </mxCell>
                <mxCell id="Ij_pz8tb1Nzk4vU_xCQM-17" value="&amp;lt;0,1,2,3&amp;gt;" style="shape=partialRectangle;html=1;whiteSpace=wrap;connectable=0;fillColor=none;top=0;left=0;bottom=0;right=0;overflow=hidden;pointerEvents=1;labelBackgroundColor=none;fontSize=12;fontColor=#000000;fontStyle=0" vertex="1" parent="Ij_pz8tb1Nzk4vU_xCQM-13">
                    <mxGeometry x="120" width="120" height="20" as="geometry">
                        <mxRectangle width="120" height="20" as="alternateBounds"/>
                    </mxGeometry>
                </mxCell>
                <mxCell id="Ij_pz8tb1Nzk4vU_xCQM-18" value="element" style="shape=table;startSize=20;container=1;collapsible=0;childLayout=tableLayout;fontStyle=1;align=center;pointerEvents=1;labelBackgroundColor=none;fontSize=12;fillColor=#647687;fontColor=#ffffff;strokeColor=#314354;" vertex="1" parent="Ij_pz8tb1Nzk4vU_xCQM-1">
                    <mxGeometry x="305" y="60" width="240" height="80" as="geometry"/>
                </mxCell>
                <mxCell id="Ij_pz8tb1Nzk4vU_xCQM-19" value="" style="shape=partialRectangle;html=1;whiteSpace=wrap;collapsible=0;dropTarget=0;pointerEvents=0;fillColor=none;top=0;left=0;bottom=0;right=0;points=[[0,0.5],[1,0.5]];portConstraint=eastwest;labelBackgroundColor=none;fontSize=12;" vertex="1" parent="Ij_pz8tb1Nzk4vU_xCQM-18">
                    <mxGeometry y="20" width="240" height="20" as="geometry"/>
                </mxCell>
                <mxCell id="Ij_pz8tb1Nzk4vU_xCQM-20" value="Pair id" style="shape=partialRectangle;html=1;whiteSpace=wrap;connectable=0;fillColor=#ffe6cc;top=0;left=0;bottom=0;right=0;overflow=hidden;pointerEvents=1;labelBackgroundColor=none;fontSize=12;strokeColor=#000000;fontStyle=1;strokeWidth=1;" vertex="1" parent="Ij_pz8tb1Nzk4vU_xCQM-19">
                    <mxGeometry width="48" height="20" as="geometry">
                        <mxRectangle width="48" height="20" as="alternateBounds"/>
                    </mxGeometry>
                </mxCell>
                <mxCell id="Ij_pz8tb1Nzk4vU_xCQM-21" value="def" style="shape=partialRectangle;html=1;whiteSpace=wrap;connectable=0;fillColor=#ffe6cc;top=0;left=0;bottom=0;right=0;overflow=hidden;pointerEvents=1;labelBackgroundColor=none;fontSize=12;strokeColor=#000000;fontStyle=1;strokeWidth=1;" vertex="1" parent="Ij_pz8tb1Nzk4vU_xCQM-19">
                    <mxGeometry x="48" width="33" height="20" as="geometry">
                        <mxRectangle width="33" height="20" as="alternateBounds"/>
                    </mxGeometry>
                </mxCell>
                <mxCell id="Ij_pz8tb1Nzk4vU_xCQM-22" value="use" style="shape=partialRectangle;html=1;whiteSpace=wrap;connectable=0;fillColor=#ffe6cc;top=0;left=0;bottom=0;right=0;overflow=hidden;pointerEvents=1;labelBackgroundColor=none;fontSize=12;strokeColor=#000000;fontStyle=1;strokeWidth=1;" vertex="1" parent="Ij_pz8tb1Nzk4vU_xCQM-19">
                    <mxGeometry x="81" width="39" height="20" as="geometry">
                        <mxRectangle width="39" height="20" as="alternateBounds"/>
                    </mxGeometry>
                </mxCell>
                <mxCell id="Ij_pz8tb1Nzk4vU_xCQM-23" value="path" style="shape=partialRectangle;html=1;whiteSpace=wrap;connectable=0;fillColor=#ffe6cc;top=0;left=0;bottom=0;right=0;overflow=hidden;pointerEvents=1;labelBackgroundColor=none;fontSize=12;strokeColor=#000000;fontStyle=1;strokeWidth=1;" vertex="1" parent="Ij_pz8tb1Nzk4vU_xCQM-19">
                    <mxGeometry x="120" width="120" height="20" as="geometry">
                        <mxRectangle width="120" height="20" as="alternateBounds"/>
                    </mxGeometry>
                </mxCell>
                <mxCell id="Ij_pz8tb1Nzk4vU_xCQM-24" value="" style="shape=partialRectangle;html=1;whiteSpace=wrap;collapsible=0;dropTarget=0;pointerEvents=0;fillColor=none;top=0;left=0;bottom=0;right=0;points=[[0,0.5],[1,0.5]];portConstraint=eastwest;labelBackgroundColor=none;fontSize=12;fontStyle=1;fontColor=#FF6666;" vertex="1" parent="Ij_pz8tb1Nzk4vU_xCQM-18">
                    <mxGeometry y="40" width="240" height="20" as="geometry"/>
                </mxCell>
                <mxCell id="Ij_pz8tb1Nzk4vU_xCQM-25" value="1" style="shape=partialRectangle;html=1;whiteSpace=wrap;connectable=0;fillColor=none;top=0;left=0;bottom=0;right=0;overflow=hidden;pointerEvents=1;labelBackgroundColor=none;fontSize=12;fontColor=#FF6666;fontStyle=1" vertex="1" parent="Ij_pz8tb1Nzk4vU_xCQM-24">
                    <mxGeometry width="48" height="20" as="geometry">
                        <mxRectangle width="48" height="20" as="alternateBounds"/>
                    </mxGeometry>
                </mxCell>
                <mxCell id="Ij_pz8tb1Nzk4vU_xCQM-26" value="0" style="shape=partialRectangle;html=1;whiteSpace=wrap;connectable=0;fillColor=none;top=0;left=0;bottom=0;right=0;overflow=hidden;pointerEvents=1;labelBackgroundColor=none;fontSize=12;fontColor=#FF6666;fontStyle=1" vertex="1" parent="Ij_pz8tb1Nzk4vU_xCQM-24">
                    <mxGeometry x="48" width="33" height="20" as="geometry">
                        <mxRectangle width="33" height="20" as="alternateBounds"/>
                    </mxGeometry>
                </mxCell>
                <mxCell id="Ij_pz8tb1Nzk4vU_xCQM-27" value="3" style="shape=partialRectangle;html=1;whiteSpace=wrap;connectable=0;fillColor=none;top=0;left=0;bottom=0;right=0;overflow=hidden;pointerEvents=1;labelBackgroundColor=none;fontSize=12;fontColor=#FF6666;fontStyle=1" vertex="1" parent="Ij_pz8tb1Nzk4vU_xCQM-24">
                    <mxGeometry x="81" width="39" height="20" as="geometry">
                        <mxRectangle width="39" height="20" as="alternateBounds"/>
                    </mxGeometry>
                </mxCell>
                <mxCell id="Ij_pz8tb1Nzk4vU_xCQM-28" value="&amp;lt;0,1,3&amp;gt;" style="shape=partialRectangle;html=1;whiteSpace=wrap;connectable=0;fillColor=none;top=0;left=0;bottom=0;right=0;overflow=hidden;pointerEvents=1;labelBackgroundColor=none;fontSize=12;fontColor=#FF6666;fontStyle=1" vertex="1" parent="Ij_pz8tb1Nzk4vU_xCQM-24">
                    <mxGeometry x="120" width="120" height="20" as="geometry">
                        <mxRectangle width="120" height="20" as="alternateBounds"/>
                    </mxGeometry>
                </mxCell>
                <mxCell id="Ij_pz8tb1Nzk4vU_xCQM-29" style="shape=partialRectangle;html=1;whiteSpace=wrap;collapsible=0;dropTarget=0;pointerEvents=0;fillColor=none;top=0;left=0;bottom=0;right=0;points=[[0,0.5],[1,0.5]];portConstraint=eastwest;labelBackgroundColor=none;fontSize=12;" vertex="1" parent="Ij_pz8tb1Nzk4vU_xCQM-18">
                    <mxGeometry y="60" width="240" height="20" as="geometry"/>
                </mxCell>
                <mxCell id="Ij_pz8tb1Nzk4vU_xCQM-30" value="2" style="shape=partialRectangle;html=1;whiteSpace=wrap;connectable=0;fillColor=none;top=0;left=0;bottom=0;right=0;overflow=hidden;pointerEvents=1;labelBackgroundColor=none;fontSize=12;" vertex="1" parent="Ij_pz8tb1Nzk4vU_xCQM-29">
                    <mxGeometry width="48" height="20" as="geometry">
                        <mxRectangle width="48" height="20" as="alternateBounds"/>
                    </mxGeometry>
                </mxCell>
                <mxCell id="Ij_pz8tb1Nzk4vU_xCQM-31" value="0" style="shape=partialRectangle;html=1;whiteSpace=wrap;connectable=0;fillColor=none;top=0;left=0;bottom=0;right=0;overflow=hidden;pointerEvents=1;labelBackgroundColor=none;fontSize=12;" vertex="1" parent="Ij_pz8tb1Nzk4vU_xCQM-29">
                    <mxGeometry x="48" width="33" height="20" as="geometry">
                        <mxRectangle width="33" height="20" as="alternateBounds"/>
                    </mxGeometry>
                </mxCell>
                <mxCell id="Ij_pz8tb1Nzk4vU_xCQM-32" value="3" style="shape=partialRectangle;html=1;whiteSpace=wrap;connectable=0;fillColor=none;top=0;left=0;bottom=0;right=0;overflow=hidden;pointerEvents=1;labelBackgroundColor=none;fontSize=12;" vertex="1" parent="Ij_pz8tb1Nzk4vU_xCQM-29">
                    <mxGeometry x="81" width="39" height="20" as="geometry">
                        <mxRectangle width="39" height="20" as="alternateBounds"/>
                    </mxGeometry>
                </mxCell>
                <mxCell id="Ij_pz8tb1Nzk4vU_xCQM-33" value="&amp;lt;01,2,3&amp;gt;" style="shape=partialRectangle;html=1;whiteSpace=wrap;connectable=0;fillColor=none;top=0;left=0;bottom=0;right=0;overflow=hidden;pointerEvents=1;labelBackgroundColor=none;fontSize=12;" vertex="1" parent="Ij_pz8tb1Nzk4vU_xCQM-29">
                    <mxGeometry x="120" width="120" height="20" as="geometry">
                        <mxRectangle width="120" height="20" as="alternateBounds"/>
                    </mxGeometry>
                </mxCell>
                <mxCell id="Ij_pz8tb1Nzk4vU_xCQM-34" value="atts" style="shape=table;startSize=20;container=1;collapsible=0;childLayout=tableLayout;fontStyle=1;align=center;pointerEvents=1;labelBackgroundColor=none;fontSize=12;fillColor=#647687;fontColor=#ffffff;strokeColor=#314354;" vertex="1" parent="Ij_pz8tb1Nzk4vU_xCQM-1">
                    <mxGeometry x="565" y="60" width="240" height="120" as="geometry"/>
                </mxCell>
                <mxCell id="Ij_pz8tb1Nzk4vU_xCQM-35" value="" style="shape=partialRectangle;html=1;whiteSpace=wrap;collapsible=0;dropTarget=0;pointerEvents=0;fillColor=none;top=0;left=0;bottom=0;right=0;points=[[0,0.5],[1,0.5]];portConstraint=eastwest;labelBackgroundColor=none;fontSize=12;" vertex="1" parent="Ij_pz8tb1Nzk4vU_xCQM-34">
                    <mxGeometry y="20" width="240" height="20" as="geometry"/>
                </mxCell>
                <mxCell id="Ij_pz8tb1Nzk4vU_xCQM-36" value="Pair id" style="shape=partialRectangle;html=1;whiteSpace=wrap;connectable=0;fillColor=#ffe6cc;top=0;left=0;bottom=0;right=0;overflow=hidden;pointerEvents=1;labelBackgroundColor=none;fontSize=12;strokeColor=#000000;fontStyle=1;strokeWidth=1;" vertex="1" parent="Ij_pz8tb1Nzk4vU_xCQM-35">
                    <mxGeometry width="48" height="20" as="geometry">
                        <mxRectangle width="48" height="20" as="alternateBounds"/>
                    </mxGeometry>
                </mxCell>
                <mxCell id="Ij_pz8tb1Nzk4vU_xCQM-37" value="def" style="shape=partialRectangle;html=1;whiteSpace=wrap;connectable=0;fillColor=#ffe6cc;top=0;left=0;bottom=0;right=0;overflow=hidden;pointerEvents=1;labelBackgroundColor=none;fontSize=12;strokeColor=#000000;fontStyle=1;strokeWidth=1;" vertex="1" parent="Ij_pz8tb1Nzk4vU_xCQM-35">
                    <mxGeometry x="48" width="33" height="20" as="geometry">
                        <mxRectangle width="33" height="20" as="alternateBounds"/>
                    </mxGeometry>
                </mxCell>
                <mxCell id="Ij_pz8tb1Nzk4vU_xCQM-38" value="use" style="shape=partialRectangle;html=1;whiteSpace=wrap;connectable=0;fillColor=#ffe6cc;top=0;left=0;bottom=0;right=0;overflow=hidden;pointerEvents=1;labelBackgroundColor=none;fontSize=12;strokeColor=#000000;fontStyle=1;strokeWidth=1;" vertex="1" parent="Ij_pz8tb1Nzk4vU_xCQM-35">
                    <mxGeometry x="81" width="39" height="20" as="geometry">
                        <mxRectangle width="39" height="20" as="alternateBounds"/>
                    </mxGeometry>
                </mxCell>
                <mxCell id="Ij_pz8tb1Nzk4vU_xCQM-39" value="path" style="shape=partialRectangle;html=1;whiteSpace=wrap;connectable=0;fillColor=#ffe6cc;top=0;left=0;bottom=0;right=0;overflow=hidden;pointerEvents=1;labelBackgroundColor=none;fontSize=12;strokeColor=#000000;fontStyle=1;strokeWidth=1;" vertex="1" parent="Ij_pz8tb1Nzk4vU_xCQM-35">
                    <mxGeometry x="120" width="120" height="20" as="geometry">
                        <mxRectangle width="120" height="20" as="alternateBounds"/>
                    </mxGeometry>
                </mxCell>
                <mxCell id="Ij_pz8tb1Nzk4vU_xCQM-40" value="" style="shape=partialRectangle;html=1;whiteSpace=wrap;collapsible=0;dropTarget=0;pointerEvents=0;fillColor=none;top=0;left=0;bottom=0;right=0;points=[[0,0.5],[1,0.5]];portConstraint=eastwest;labelBackgroundColor=none;fontSize=12;" vertex="1" parent="Ij_pz8tb1Nzk4vU_xCQM-34">
                    <mxGeometry y="40" width="240" height="20" as="geometry"/>
                </mxCell>
                <mxCell id="Ij_pz8tb1Nzk4vU_xCQM-41" value="1" style="shape=partialRectangle;html=1;whiteSpace=wrap;connectable=0;fillColor=none;top=0;left=0;bottom=0;right=0;overflow=hidden;pointerEvents=1;labelBackgroundColor=none;fontSize=12;fontColor=#FF6666;fontStyle=1" vertex="1" parent="Ij_pz8tb1Nzk4vU_xCQM-40">
                    <mxGeometry width="48" height="20" as="geometry">
                        <mxRectangle width="48" height="20" as="alternateBounds"/>
                    </mxGeometry>
                </mxCell>
                <mxCell id="Ij_pz8tb1Nzk4vU_xCQM-42" value="0" style="shape=partialRectangle;html=1;whiteSpace=wrap;connectable=0;fillColor=none;top=0;left=0;bottom=0;right=0;overflow=hidden;pointerEvents=1;labelBackgroundColor=none;fontSize=12;fontColor=#FF6666;fontStyle=1" vertex="1" parent="Ij_pz8tb1Nzk4vU_xCQM-40">
                    <mxGeometry x="48" width="33" height="20" as="geometry">
                        <mxRectangle width="33" height="20" as="alternateBounds"/>
                    </mxGeometry>
                </mxCell>
                <mxCell id="Ij_pz8tb1Nzk4vU_xCQM-43" value="(1,T)" style="shape=partialRectangle;html=1;whiteSpace=wrap;connectable=0;fillColor=none;top=0;left=0;bottom=0;right=0;overflow=hidden;pointerEvents=1;labelBackgroundColor=none;fontSize=12;fontColor=#FF6666;fontStyle=1" vertex="1" parent="Ij_pz8tb1Nzk4vU_xCQM-40">
                    <mxGeometry x="81" width="39" height="20" as="geometry">
                        <mxRectangle width="39" height="20" as="alternateBounds"/>
                    </mxGeometry>
                </mxCell>
                <mxCell id="Ij_pz8tb1Nzk4vU_xCQM-44" value="&amp;lt;0,1,2&amp;gt;" style="shape=partialRectangle;html=1;whiteSpace=wrap;connectable=0;fillColor=none;top=0;left=0;bottom=0;right=0;overflow=hidden;pointerEvents=1;labelBackgroundColor=none;fontSize=12;fontColor=#FF6666;fontStyle=1" vertex="1" parent="Ij_pz8tb1Nzk4vU_xCQM-40">
                    <mxGeometry x="120" width="120" height="20" as="geometry">
                        <mxRectangle width="120" height="20" as="alternateBounds"/>
                    </mxGeometry>
                </mxCell>
                <mxCell id="Ij_pz8tb1Nzk4vU_xCQM-45" style="shape=partialRectangle;html=1;whiteSpace=wrap;collapsible=0;dropTarget=0;pointerEvents=0;fillColor=none;top=0;left=0;bottom=0;right=0;points=[[0,0.5],[1,0.5]];portConstraint=eastwest;labelBackgroundColor=none;fontSize=12;" vertex="1" parent="Ij_pz8tb1Nzk4vU_xCQM-34">
                    <mxGeometry y="60" width="240" height="20" as="geometry"/>
                </mxCell>
                <mxCell id="Ij_pz8tb1Nzk4vU_xCQM-46" value="2" style="shape=partialRectangle;html=1;whiteSpace=wrap;connectable=0;fillColor=none;top=0;left=0;bottom=0;right=0;overflow=hidden;pointerEvents=1;labelBackgroundColor=none;fontSize=12;fontColor=#FF6666;fontStyle=1" vertex="1" parent="Ij_pz8tb1Nzk4vU_xCQM-45">
                    <mxGeometry width="48" height="20" as="geometry">
                        <mxRectangle width="48" height="20" as="alternateBounds"/>
                    </mxGeometry>
                </mxCell>
                <mxCell id="Ij_pz8tb1Nzk4vU_xCQM-47" value="0" style="shape=partialRectangle;html=1;whiteSpace=wrap;connectable=0;fillColor=none;top=0;left=0;bottom=0;right=0;overflow=hidden;pointerEvents=1;labelBackgroundColor=none;fontSize=12;fontColor=#FF6666;fontStyle=1" vertex="1" parent="Ij_pz8tb1Nzk4vU_xCQM-45">
                    <mxGeometry x="48" width="33" height="20" as="geometry">
                        <mxRectangle width="33" height="20" as="alternateBounds"/>
                    </mxGeometry>
                </mxCell>
                <mxCell id="Ij_pz8tb1Nzk4vU_xCQM-48" value="(1,F)" style="shape=partialRectangle;html=1;whiteSpace=wrap;connectable=0;fillColor=none;top=0;left=0;bottom=0;right=0;overflow=hidden;pointerEvents=1;labelBackgroundColor=none;fontSize=12;fontColor=#FF6666;fontStyle=1" vertex="1" parent="Ij_pz8tb1Nzk4vU_xCQM-45">
                    <mxGeometry x="81" width="39" height="20" as="geometry">
                        <mxRectangle width="39" height="20" as="alternateBounds"/>
                    </mxGeometry>
                </mxCell>
                <mxCell id="Ij_pz8tb1Nzk4vU_xCQM-49" value="&amp;lt;0,1,3&amp;gt;" style="shape=partialRectangle;html=1;whiteSpace=wrap;connectable=0;fillColor=none;top=0;left=0;bottom=0;right=0;overflow=hidden;pointerEvents=1;labelBackgroundColor=none;fontSize=12;fontColor=#FF6666;fontStyle=1" vertex="1" parent="Ij_pz8tb1Nzk4vU_xCQM-45">
                    <mxGeometry x="120" width="120" height="20" as="geometry">
                        <mxRectangle width="120" height="20" as="alternateBounds"/>
                    </mxGeometry>
                </mxCell>
                <mxCell id="Ij_pz8tb1Nzk4vU_xCQM-50" style="shape=partialRectangle;html=1;whiteSpace=wrap;collapsible=0;dropTarget=0;pointerEvents=0;fillColor=none;top=0;left=0;bottom=0;right=0;points=[[0,0.5],[1,0.5]];portConstraint=eastwest;labelBackgroundColor=none;fontSize=12;" vertex="1" parent="Ij_pz8tb1Nzk4vU_xCQM-34">
                    <mxGeometry y="80" width="240" height="20" as="geometry"/>
                </mxCell>
                <mxCell id="Ij_pz8tb1Nzk4vU_xCQM-51" value="3" style="shape=partialRectangle;html=1;whiteSpace=wrap;connectable=0;fillColor=none;top=0;left=0;bottom=0;right=0;overflow=hidden;pointerEvents=1;labelBackgroundColor=none;fontSize=12;fontColor=#FF6666;fontStyle=1" vertex="1" parent="Ij_pz8tb1Nzk4vU_xCQM-50">
                    <mxGeometry width="48" height="20" as="geometry">
                        <mxRectangle width="48" height="20" as="alternateBounds"/>
                    </mxGeometry>
                </mxCell>
                <mxCell id="Ij_pz8tb1Nzk4vU_xCQM-52" value="0" style="shape=partialRectangle;html=1;whiteSpace=wrap;connectable=0;fillColor=none;top=0;left=0;bottom=0;right=0;overflow=hidden;pointerEvents=1;labelBackgroundColor=none;fontSize=12;fontColor=#FF6666;fontStyle=1" vertex="1" parent="Ij_pz8tb1Nzk4vU_xCQM-50">
                    <mxGeometry x="48" width="33" height="20" as="geometry">
                        <mxRectangle width="33" height="20" as="alternateBounds"/>
                    </mxGeometry>
                </mxCell>
                <mxCell id="Ij_pz8tb1Nzk4vU_xCQM-53" value="3" style="shape=partialRectangle;html=1;whiteSpace=wrap;connectable=0;fillColor=none;top=0;left=0;bottom=0;right=0;overflow=hidden;pointerEvents=1;labelBackgroundColor=none;fontSize=12;fontColor=#FF6666;fontStyle=1" vertex="1" parent="Ij_pz8tb1Nzk4vU_xCQM-50">
                    <mxGeometry x="81" width="39" height="20" as="geometry">
                        <mxRectangle width="39" height="20" as="alternateBounds"/>
                    </mxGeometry>
                </mxCell>
                <mxCell id="Ij_pz8tb1Nzk4vU_xCQM-54" value="&amp;lt;0,1,3&amp;gt;" style="shape=partialRectangle;html=1;whiteSpace=wrap;connectable=0;fillColor=none;top=0;left=0;bottom=0;right=0;overflow=hidden;pointerEvents=1;labelBackgroundColor=none;fontSize=12;fontColor=#FF6666;fontStyle=1" vertex="1" parent="Ij_pz8tb1Nzk4vU_xCQM-50">
                    <mxGeometry x="120" width="120" height="20" as="geometry">
                        <mxRectangle width="120" height="20" as="alternateBounds"/>
                    </mxGeometry>
                </mxCell>
                <mxCell id="Ij_pz8tb1Nzk4vU_xCQM-55" style="shape=partialRectangle;html=1;whiteSpace=wrap;collapsible=0;dropTarget=0;pointerEvents=0;fillColor=none;top=0;left=0;bottom=0;right=0;points=[[0,0.5],[1,0.5]];portConstraint=eastwest;labelBackgroundColor=none;fontSize=12;" vertex="1" parent="Ij_pz8tb1Nzk4vU_xCQM-34">
                    <mxGeometry y="100" width="240" height="20" as="geometry"/>
                </mxCell>
                <mxCell id="Ij_pz8tb1Nzk4vU_xCQM-56" value="4" style="shape=partialRectangle;html=1;whiteSpace=wrap;connectable=0;fillColor=none;top=0;left=0;bottom=0;right=0;overflow=hidden;pointerEvents=1;labelBackgroundColor=none;fontSize=12;fontColor=#FF6666;fontStyle=1" vertex="1" parent="Ij_pz8tb1Nzk4vU_xCQM-55">
                    <mxGeometry width="48" height="20" as="geometry">
                        <mxRectangle width="48" height="20" as="alternateBounds"/>
                    </mxGeometry>
                </mxCell>
                <mxCell id="Ij_pz8tb1Nzk4vU_xCQM-57" value="2" style="shape=partialRectangle;html=1;whiteSpace=wrap;connectable=0;fillColor=none;top=0;left=0;bottom=0;right=0;overflow=hidden;pointerEvents=1;labelBackgroundColor=none;fontSize=12;fontColor=#FF6666;fontStyle=1" vertex="1" parent="Ij_pz8tb1Nzk4vU_xCQM-55">
                    <mxGeometry x="48" width="33" height="20" as="geometry">
                        <mxRectangle width="33" height="20" as="alternateBounds"/>
                    </mxGeometry>
                </mxCell>
                <mxCell id="Ij_pz8tb1Nzk4vU_xCQM-58" value="3" style="shape=partialRectangle;html=1;whiteSpace=wrap;connectable=0;fillColor=none;top=0;left=0;bottom=0;right=0;overflow=hidden;pointerEvents=1;labelBackgroundColor=none;fontSize=12;fontColor=#FF6666;fontStyle=1" vertex="1" parent="Ij_pz8tb1Nzk4vU_xCQM-55">
                    <mxGeometry x="81" width="39" height="20" as="geometry">
                        <mxRectangle width="39" height="20" as="alternateBounds"/>
                    </mxGeometry>
                </mxCell>
                <mxCell id="Ij_pz8tb1Nzk4vU_xCQM-59" value="&amp;lt;2,3&amp;gt;" style="shape=partialRectangle;html=1;whiteSpace=wrap;connectable=0;fillColor=none;top=0;left=0;bottom=0;right=0;overflow=hidden;pointerEvents=1;labelBackgroundColor=none;fontSize=12;fontColor=#FF6666;fontStyle=1" vertex="1" parent="Ij_pz8tb1Nzk4vU_xCQM-55">
                    <mxGeometry x="120" width="120" height="20" as="geometry">
                        <mxRectangle width="120" height="20" as="alternateBounds"/>
                    </mxGeometry>
                </mxCell>
            </root>
        </mxGraphModel>
    </diagram>
</mxfile>